<svg width="19" height="19" viewBox="0 0 19 19" fill="none" xmlns="http://www.w3.org/2000/svg">
<path d="M9.20312 14.1016H8.16406" stroke="#0A1A26" stroke-width="1.19921" stroke-miterlimit="10" stroke-linecap="round" stroke-linejoin="round"/>
<path d="M14.5469 9.38867H8.16406" stroke="#0A1A26" stroke-width="1.19921" stroke-miterlimit="10" stroke-linecap="round" stroke-linejoin="round"/>
<path d="M14.5469 4.93555H8.16406" stroke="#0A1A26" stroke-width="1.19921" stroke-miterlimit="10" stroke-linecap="round" stroke-linejoin="round"/>
<path d="M5.19531 14.1016H4.45312" stroke="#0A1A26" stroke-width="1.19921" stroke-miterlimit="10" stroke-linecap="round" stroke-linejoin="round"/>
<path d="M5.19531 9.38867H4.45312" stroke="#0A1A26" stroke-width="1.19921" stroke-miterlimit="10" stroke-linecap="round" stroke-linejoin="round"/>
<path d="M5.19531 4.93555H4.45312" stroke="#0A1A26" stroke-width="1.19921" stroke-miterlimit="10" stroke-linecap="round" stroke-linejoin="round"/>
<mask id="mask0_1_2921" style="mask-type:luminance" maskUnits="userSpaceOnUse" x="0" y="0" width="19" height="19">
<path d="M18.9854 18.9854V0.0146484H0.0146484V18.9854H18.9854Z" fill="white" stroke="white" stroke-width="0.0299803"/>
</mask>
<g mask="url(#mask0_1_2921)">
<path d="M14.7695 12.0605C13.3349 12.0605 12.1719 13.2236 12.1719 14.6582C12.1719 16.0929 13.3349 17.2559 14.7695 17.2559C16.2042 17.2559 17.3672 16.0929 17.3672 14.6582C17.3672 13.2236 16.2042 12.0605 14.7695 12.0605Z" stroke="#0A1A26" stroke-width="1.19921" stroke-miterlimit="10" stroke-linecap="round" stroke-linejoin="round"/>
<path d="M16.6621 16.6621L18.2578 18.2578" stroke="#0A1A26" stroke-width="1.19921" stroke-miterlimit="10" stroke-linecap="round" stroke-linejoin="round"/>
<path d="M10.6133 18.2578H2.96875C1.73906 18.2578 0.742188 17.2609 0.742188 16.0312V2.96875C0.742188 1.73905 1.73906 0.742186 2.96875 0.742186H16.0313C17.2609 0.742186 18.2578 1.73905 18.2578 2.96875V10.3164" stroke="#0A1A26" stroke-width="1.19921" stroke-miterlimit="10" stroke-linecap="round" stroke-linejoin="round"/>
</g>
</svg>
