<svg width="21" height="21" viewBox="0 0 21 21" fill="none" xmlns="http://www.w3.org/2000/svg">
<path d="M10.3193 0.81543H10.415C12.3796 0.815419 13.8766 0.816699 15.0547 0.944336C15.1433 0.953937 15.23 0.96641 15.3154 0.977539C15.1985 1.33983 15.1338 1.72562 15.1338 2.12598C15.1338 4.19149 16.8084 5.86619 18.874 5.86621C19.2744 5.86621 19.6601 5.80144 20.0225 5.68457C20.0336 5.77032 20.047 5.85735 20.0566 5.94629C20.1842 7.12435 20.1846 8.62062 20.1846 10.585V10.6816C20.1846 12.6459 20.1842 14.1423 20.0566 15.3203C19.9274 16.5128 19.6656 17.4092 19.1221 18.1572C18.779 18.6294 18.3637 19.0447 17.8916 19.3877C17.1436 19.9312 16.2471 20.193 15.0547 20.3223C13.8767 20.4499 12.3803 20.4502 10.416 20.4502H10.3193C8.35499 20.4502 6.85872 20.4498 5.68066 20.3223C4.4881 20.193 3.59173 19.9312 2.84375 19.3877C2.37143 19.0446 1.95551 18.6295 1.6123 18.1572C1.06888 17.4092 0.80793 16.5127 0.678711 15.3203C0.551074 14.1422 0.549794 12.6452 0.549805 10.6807V10.585C0.549794 8.62058 0.551088 7.12437 0.678711 5.94629C0.807904 4.75386 1.06897 3.85732 1.6123 3.10938C1.9555 2.637 2.37138 2.22113 2.84375 1.87793C3.5917 1.3346 4.48824 1.07353 5.68066 0.944336C6.85873 0.816714 8.35487 0.815419 10.3193 0.81543Z" stroke="white" stroke-width="1.1"/>
<path d="M15.417 7.46436C15.4894 7.31689 15.6671 7.25566 15.8145 7.32764C15.962 7.4 16.0235 7.57859 15.9512 7.72607L14.3984 10.8921C13.5009 12.7212 10.8633 12.6314 10.0918 10.7456C9.51466 9.33503 7.54145 9.26796 6.87012 10.6362L5.31738 13.8022C5.24499 13.9496 5.06733 14.0102 4.91992 13.938C4.77261 13.8657 4.71116 13.688 4.7832 13.5405L6.33594 10.3745C7.23322 8.54529 9.87083 8.63453 10.6426 10.52C11.2196 11.9308 13.193 11.998 13.8643 10.6294L15.417 7.46436Z" stroke="white"/>
<path d="M16.7471 2.12665C16.7471 3.30117 17.6992 4.25331 18.8737 4.25331C20.0483 4.25331 21.0004 3.30117 21.0004 2.12665C21.0004 0.952135 20.0483 0 18.8737 0C17.6992 0 16.7471 0.952135 16.7471 2.12665Z" fill="white"/>
</svg>
