<svg width="21" height="21" viewBox="0 0 21 21" fill="none" xmlns="http://www.w3.org/2000/svg">
<path fill-rule="evenodd" clip-rule="evenodd" d="M18.8741 5.31643C17.1122 5.31643 15.6841 3.88822 15.6841 2.12645C15.6841 1.55237 15.8357 1.01371 16.1011 0.548343C15.7891 0.483703 15.4606 0.434779 15.1136 0.397191C13.8992 0.265614 12.3684 0.265615 10.4155 0.265625H10.3194C8.36647 0.265615 6.83572 0.265614 5.62126 0.397191C4.38191 0.531468 3.37772 0.810389 2.52034 1.43332C2.00128 1.81044 1.54481 2.2669 1.16769 2.78597C0.544764 3.64335 0.265843 4.64753 0.131566 5.88688C-1.05051e-05 7.10134 -1.04446e-05 8.6321 1.88647e-07 10.5849V10.6811C-1.04446e-05 12.634 -1.05051e-05 14.1648 0.131566 15.3792C0.265843 16.6186 0.544764 17.6227 1.16769 18.4802C1.54481 18.9992 2.00128 19.4557 2.52034 19.8328C3.37772 20.4558 4.38191 20.7347 5.62126 20.869C6.8357 21.0005 8.36647 21.0005 10.3193 21.0005H10.4156C12.3684 21.0005 13.8992 21.0005 15.1136 20.869C16.353 20.7347 17.3571 20.4558 18.2146 19.8328C18.7336 19.4557 19.1901 18.9992 19.5671 18.4802C20.1901 17.6227 20.4691 16.6186 20.6033 15.3792C20.7349 14.1648 20.7349 12.634 20.7349 10.6812V10.5849C20.7349 8.6321 20.7349 7.10132 20.6033 5.88688C20.5657 5.53992 20.5168 5.2114 20.4521 4.89937C19.9868 5.16479 19.4482 5.31643 18.8741 5.31643ZM16.0353 6.87899C16.4307 7.07296 16.5941 7.55077 16.4001 7.9462L14.8472 11.1118C13.7599 13.3284 10.5642 13.2201 9.62928 10.9351C9.21554 9.92351 7.80091 9.87555 7.31961 10.8568L5.7668 14.0223C5.57282 14.4178 5.09502 14.5811 4.69959 14.3871C4.30416 14.1932 4.14084 13.7153 4.33481 13.3199L5.88762 10.1544C6.97495 7.93771 10.1707 8.04596 11.1056 10.3311C11.5193 11.3426 12.934 11.3906 13.4153 10.4093L14.968 7.24376C15.1621 6.84833 15.6398 6.68502 16.0353 6.87899Z" fill="#131721"/>
<path d="M16.7471 2.12665C16.7471 3.30117 17.6992 4.25331 18.8737 4.25331C20.0483 4.25331 21.0004 3.30117 21.0004 2.12665C21.0004 0.952135 20.0483 0 18.8737 0C17.6992 0 16.7471 0.952135 16.7471 2.12665Z" fill="#131721"/>
</svg>
