<svg width="38" height="41" viewBox="0 0 38 41" fill="none" xmlns="http://www.w3.org/2000/svg">
<path d="M35.72 7.45455H28.88V5.21818C28.88 3.83423 28.3195 2.50697 27.3218 1.52837C26.3241 0.549771 24.971 0 23.56 0H14.44C13.029 0 11.6759 0.549771 10.6782 1.52837C9.6805 2.50697 9.12 3.83423 9.12 5.21818V7.45455H2.28C1.67531 7.45455 1.09538 7.69016 0.667797 8.10956C0.240214 8.52896 0 9.09779 0 9.69091C0 10.284 0.240214 10.8529 0.667797 11.2723C1.09538 11.6917 1.67531 11.9273 2.28 11.9273H3.04V37.2727C3.04 38.2613 3.44036 39.2093 4.15299 39.9083C4.86563 40.6073 5.83218 41 6.84 41H31.16C32.1678 41 33.1344 40.6073 33.847 39.9083C34.5596 39.2093 34.96 38.2613 34.96 37.2727V11.9273H35.72C36.3247 11.9273 36.9046 11.6917 37.3322 11.2723C37.7598 10.8529 38 10.284 38 9.69091C38 9.09779 37.7598 8.52896 37.3322 8.10956C36.9046 7.69016 36.3247 7.45455 35.72 7.45455ZM13.68 5.21818C13.68 5.02047 13.7601 4.83087 13.9026 4.69107C14.0451 4.55127 14.2384 4.47273 14.44 4.47273H23.56C23.7616 4.47273 23.9549 4.55127 24.0974 4.69107C24.2399 4.83087 24.32 5.02047 24.32 5.21818V7.45455H13.68V5.21818ZM30.4 36.5273H7.6V11.9273H30.4V36.5273ZM16.72 17.8909V29.8182C16.72 30.4113 16.4798 30.9801 16.0522 31.3995C15.6246 31.8189 15.0447 32.0545 14.44 32.0545C13.8353 32.0545 13.2554 31.8189 12.8278 31.3995C12.4002 30.9801 12.16 30.4113 12.16 29.8182V17.8909C12.16 17.2978 12.4002 16.729 12.8278 16.3096C13.2554 15.8902 13.8353 15.6545 14.44 15.6545C15.0447 15.6545 15.6246 15.8902 16.0522 16.3096C16.4798 16.729 16.72 17.2978 16.72 17.8909ZM25.84 17.8909V29.8182C25.84 30.4113 25.5998 30.9801 25.1722 31.3995C24.7446 31.8189 24.1647 32.0545 23.56 32.0545C22.9553 32.0545 22.3754 31.8189 21.9478 31.3995C21.5202 30.9801 21.28 30.4113 21.28 29.8182V17.8909C21.28 17.2978 21.5202 16.729 21.9478 16.3096C22.3754 15.8902 22.9553 15.6545 23.56 15.6545C24.1647 15.6545 24.7446 15.8902 25.1722 16.3096C25.5998 16.729 25.84 17.2978 25.84 17.8909Z" fill="black"/>
</svg>
