<svg width="12" height="12" viewBox="0 0 12 12" fill="none" xmlns="http://www.w3.org/2000/svg">
<path fill-rule="evenodd" clip-rule="evenodd" d="M11.5116 3.99864C9.86346 5.64679 5.99506 9.51441 5.0516 10.4548C4.84771 10.6579 4.60507 10.8184 4.34459 10.923C3.58796 11.237 1.74214 11.961 1.19948 11.9975C0.876205 12.0192 0.559135 11.8998 0.329667 11.6703C0.100198 11.4409 -0.0191876 11.1238 0.00251888 10.8005C0.0389548 10.2579 0.763021 8.41359 1.07156 7.66006C1.17932 7.39261 1.33979 7.14996 1.54368 6.94685L8.00136 0.488396C8.31377 0.175978 8.7386 0 9.18048 0C9.62236 0 10.0472 0.175978 10.3596 0.488396L11.5116 1.64039C11.824 1.95281 12 2.37763 12 2.81952C12 3.2614 11.824 3.68623 11.5116 3.99864ZM1.16769 10.8323C1.69795 10.7656 3.24764 10.1191 3.89883 9.84854C3.90116 9.84776 3.90348 9.84699 3.90503 9.84621C4.02674 9.79737 4.13683 9.7245 4.22908 9.63225L4.22986 9.63147C5.17486 8.69112 9.04172 4.82427 10.6891 3.17612C10.7837 3.08154 10.8372 2.95363 10.8372 2.81952C10.8372 2.6854 10.7837 2.55749 10.6891 2.46291L9.53709 1.31092C9.44251 1.21634 9.3146 1.16285 9.18048 1.16285C9.04637 1.16285 8.91846 1.21634 8.82388 1.31092L2.36542 7.76937C2.2724 7.86162 2.19952 7.97248 2.15069 8.09419L2.14913 8.09729C1.88168 8.75004 1.23436 10.3013 1.16769 10.8323Z" fill="#131721"/>
<path fill-rule="evenodd" clip-rule="evenodd" d="M9.97357 4.71199C10.1999 4.93914 10.1999 5.30737 9.97357 5.53451C9.74643 5.76166 9.37819 5.76166 9.15105 5.53451L6.46333 2.84679C6.23618 2.61965 6.23618 2.25141 6.46333 2.02427C6.69047 1.7979 7.0587 1.7979 7.28585 2.02427L9.97357 4.71199Z" fill="#131721"/>
<path fill-rule="evenodd" clip-rule="evenodd" d="M5.22963 9.45672C5.45678 9.68308 5.45678 10.0521 5.22963 10.2785C5.00327 10.5056 4.63426 10.5056 4.40789 10.2785L1.72016 7.59073C1.49302 7.36437 1.49302 6.99536 1.72016 6.76899C1.94653 6.54185 2.31554 6.54185 2.54191 6.76899L5.22963 9.45672Z" fill="#131721"/>
</svg>
