<svg width="141" height="47" viewBox="0 0 141 47" fill="none" xmlns="http://www.w3.org/2000/svg">
<path d="M29.7937 34.9408C30.3762 35.586 31.0718 36.0931 31.8811 36.4631C32.6895 36.8331 33.58 37.0188 34.5509 37.0188H34.7453C35.5217 37.0188 36.2416 36.9057 36.9052 36.6807C37.5681 36.4557 38.1591 36.1732 38.6771 35.8351C39.1944 35.4965 39.6394 35.1343 40.0118 34.7476C40.3839 34.3609 40.6833 33.991 40.9101 33.6361V36.584H49.4051V9.76282H40.8617V12.5175C40.5701 12.1957 40.2305 11.8576 39.842 11.5028C39.4536 11.1483 39.0004 10.8261 38.4827 10.5362C37.9651 10.2463 37.374 10.0046 36.7112 9.81141C36.0476 9.61785 35.3109 9.52148 34.5025 9.52148H34.2596C32.3179 9.52148 30.7806 10.1495 29.6481 11.406C28.5152 12.6625 27.9492 14.3056 27.9492 16.3355V29.8185C27.9492 30.8496 28.1108 31.7998 28.4349 32.6696C28.7577 33.5394 29.2113 34.2968 29.7937 34.9408ZM36.6382 18.4307C36.6382 17.5556 36.7916 16.8667 37.0996 16.3641C37.4064 15.8618 37.9491 15.6103 38.7255 15.6103C39.4696 15.6103 40.0118 15.8618 40.3519 16.3641C40.6915 16.8667 40.8617 17.5556 40.8617 18.4307V28.3028C40.8617 29.1456 40.6915 29.8267 40.3519 30.3453C40.0118 30.8643 39.4696 31.1232 38.7255 31.1232C37.9815 31.1232 37.4471 30.8725 37.1238 30.3694C36.7998 29.8675 36.6382 29.1946 36.6382 28.3514V18.4307Z" fill="white"/>
<path d="M87.8519 35.8351C88.3692 35.4965 88.8146 35.1343 89.187 34.7476C89.5582 34.3609 89.8577 33.991 90.0849 33.6361V36.584H98.5799V9.76282H90.0365V12.5175C89.7453 12.1957 89.4048 11.8576 89.0168 11.5028C88.6288 11.1483 88.1747 10.8261 87.6579 10.5362C87.1399 10.2463 86.5488 10.0046 85.886 9.81141C85.2224 9.61785 84.4857 9.52148 83.6773 9.52148H83.4344C81.4923 9.52148 79.955 10.1495 78.8229 11.406C77.6896 12.6625 77.124 14.3056 77.124 16.3355V29.8185C77.124 30.8496 77.2856 31.7998 77.6097 32.6696C77.9325 33.5394 78.3861 34.2968 78.9685 34.9408C79.5514 35.586 80.2466 36.0931 81.0555 36.4631C81.8647 36.8331 82.7548 37.0188 83.7257 37.0188H83.9197C84.6961 37.0188 85.4164 36.9057 86.08 36.6807C86.7429 36.4557 87.3339 36.1732 87.8519 35.8351ZM85.813 18.4307C85.813 17.5556 85.9664 16.8667 86.2744 16.3641C86.5817 15.8618 87.1235 15.6103 87.9003 15.6103C88.644 15.6103 89.187 15.8618 89.5267 16.3641C89.8659 16.8667 90.0365 17.5556 90.0365 18.4307V28.3028C90.0365 29.1456 89.8659 29.8267 89.5267 30.3453C89.187 30.8643 88.644 31.1232 87.9003 31.1232C87.1567 31.1232 86.6219 30.8725 86.2986 30.3694C85.9746 29.8675 85.813 29.1946 85.813 28.3514V18.4307Z" fill="white"/>
<path d="M73.7207 0H65.0801V36.583H73.7207V0Z" fill="white"/>
<path d="M61.6328 0H52.9922V36.583H61.6328V0Z" fill="white"/>
<path d="M136.68 1.20898H128.088V9.76253H125.193V16.1898H128.088V31.5578C128.088 34.9091 129.803 36.5837 133.233 36.5837H141V30.0114H138.233C137.585 30.0114 137.165 29.8914 136.971 29.6504C136.777 29.4095 136.68 29.0163 136.68 28.4703V16.1898H141V9.76253H136.68V1.20898Z" fill="white"/>
<path d="M117.56 9.42383H117.221C116.217 9.42383 115.335 9.57696 114.575 9.88281C113.814 10.1895 113.167 10.5517 112.633 10.9702C112.099 11.3892 111.662 11.8 111.323 12.2026C110.983 12.6056 110.748 12.9033 110.619 13.0965V9.76194H102.172V36.5831H110.716V18.7026C110.716 17.8651 110.893 17.1803 111.25 16.6486C111.606 16.117 112.188 15.8511 112.997 15.8511C113.807 15.8511 114.388 16.1092 114.745 16.6245C115.101 17.1403 115.279 17.801 115.279 18.6058V36.5831H123.871V15.8993C123.871 13.9662 123.353 12.4043 122.318 11.212C121.282 10.0204 119.696 9.42383 117.56 9.42383Z" fill="white"/>
<path d="M1.99341 34.217C2.67019 35.0541 3.51924 35.7237 4.54055 36.2219C5.55777 36.7201 6.78007 36.9692 8.20335 36.9692H11.0089C12.1081 36.9692 13.0556 36.8181 13.8472 36.5118C14.6389 36.2056 15.3198 35.8422 15.8858 35.4256C16.4518 35.0051 16.8989 34.5763 17.2188 34.1435C17.5429 33.7065 17.7849 33.3635 17.9489 33.1022C18.1417 33.6208 18.355 34.2251 18.5806 34.9152C18.8062 35.6094 18.9497 36.1157 19.0154 36.4383H24.6962V15.3679H12.7111V21.7462H16.5913V25.2212C16.5913 26.6871 16.2918 27.8672 15.7012 28.7615C15.1065 29.6599 14.1262 30.109 12.748 30.109C11.3247 30.109 10.3198 29.6721 9.72507 28.7983C9.13443 27.9244 8.83911 26.732 8.83911 25.2212H8.835V11.554C8.835 10.137 9.10571 9.02632 9.64713 8.2178C10.1845 7.40928 11.095 7.00911 12.3706 7.00911C13.798 7.00911 14.766 7.40928 15.2828 8.2178C15.7996 9.02632 16.0539 10.137 16.0539 11.554V12.2277H24.3557V9.08757C24.3557 7.82988 24.1958 6.64568 23.8717 5.53499C23.5477 4.4243 22.9981 3.45653 22.2188 2.63576C21.4435 1.81091 20.4017 1.16981 19.0892 0.700219C17.7808 0.234709 16.1524 0.00195312 14.2123 0.00195312H10.3895C8.44945 0.00195312 6.81288 0.251042 5.48804 0.749219C4.1591 1.25148 3.09266 1.94975 2.28463 2.85218C1.4725 3.75462 0.890064 4.80814 0.53732 6.01684C0.180474 7.22553 0 8.54039 0 9.95734V27.5446C0 28.8677 0.164067 30.1009 0.488099 31.2442C0.80803 32.3876 1.31254 33.3799 1.99341 34.217Z" fill="white"/>
<path d="M69.1136 45.2754H0V46.9088H69.1136V45.2754Z" fill="white"/>
<path d="M69.1136 41.7422H0V43.3756H69.1136V41.7422Z" fill="white"/>
<path d="M75.0514 41.7461H73.3853V46.91H75.0514V41.7461Z" fill="white"/>
<path d="M81.766 44.8417L78.8518 41.7461H77.1504V46.91H78.7751V43.7588L81.773 46.91H83.3833V41.7461H81.766V44.8417Z" fill="white"/>
<path d="M88.3413 41.7461H85.4824V46.91H88.3483C91.2211 46.91 91.7367 45.5147 91.7367 44.3766V44.1688C91.7367 43.0581 91.1165 41.7461 88.3413 41.7461ZM90.0008 44.328C90.0008 44.8834 89.84 45.6678 88.1949 45.6678H87.1493V42.9813H88.1949C89.8335 42.9813 90.0008 43.7519 90.0008 44.2864V44.328Z" fill="white"/>
<path d="M98.0964 44.2656C98.0964 44.8487 97.936 45.6192 96.6879 45.6192H96.653C95.4053 45.6192 95.224 44.8487 95.224 44.2656V41.7461H93.5645V44.2864C93.5645 45.3068 93.8089 46.9864 96.5693 46.9864H96.7716C99.4282 46.9864 99.7559 45.3142 99.7559 44.2864V41.7461H98.0964V44.2656Z" fill="white"/>
<path d="M105.091 43.6611L104.358 43.6403C103.57 43.6191 103.396 43.4317 103.396 43.196C103.396 42.9461 103.577 42.7726 104.463 42.7726H104.526C105.453 42.7726 105.586 43.085 105.621 43.3002H107.391V43.2442C107.391 42.5227 107.036 41.6758 104.637 41.6758H104.372C102.162 41.6758 101.66 42.37 101.66 43.2238V43.2863C101.66 44.0846 102.183 44.7718 103.996 44.827L104.707 44.8478C105.565 44.869 105.725 45.0564 105.725 45.3268C105.725 45.5836 105.592 45.8682 104.581 45.8682H104.54C103.508 45.8682 103.417 45.4101 103.396 45.1953H101.597V45.2573C101.597 45.9168 101.876 46.9997 104.477 46.9997H104.665C107.119 46.9997 107.482 46.0765 107.482 45.2786V45.1953C107.482 44.3202 107.022 43.7167 105.091 43.6611Z" fill="white"/>
<path d="M108.967 43.0507H111.01V46.91H112.669V43.0507H114.712V41.7461H108.967V43.0507Z" fill="white"/>
<path d="M122.591 45.7095C122.591 44.932 122.11 44.5571 121.42 44.4256C122.034 44.2933 122.549 43.8907 122.549 43.2035V43.141C122.549 42.5232 122.299 41.7461 120.367 41.7461H116.519V46.91H118.185V45.2305H119.935C120.667 45.2305 120.911 45.4734 120.911 46.1399V46.5698C120.911 46.7854 120.932 46.8757 120.953 46.91H122.675V46.8757C122.626 46.7989 122.591 46.7087 122.591 46.3824V45.7095ZM120.813 43.4677C120.813 43.7315 120.681 43.9601 120.144 43.9601H118.185V42.9813H120.144C120.681 42.9813 120.813 43.2035 120.813 43.4538V43.4677Z" fill="white"/>
<path d="M126.196 41.7461H124.53V46.91H126.196V41.7461Z" fill="white"/>
<path d="M130.06 41.7461L127.703 46.91H129.369L129.767 46.0149H132.507L132.911 46.91H134.689L132.256 41.7461H130.06ZM130.276 44.8764L131.126 42.9466L131.998 44.8764H130.276Z" fill="white"/>
<path d="M137.862 41.7461H136.196V46.9104H141V45.5637H137.862V41.7461Z" fill="white"/>
</svg>
