<svg width="22" height="20" viewBox="0 0 22 20" fill="none" xmlns="http://www.w3.org/2000/svg">
<path d="M18.3877 3.57968H15.2382V1.6117C15.2382 0.72296 14.5077 0 13.6099 0H8.13206C7.23423 0 6.5038 0.723045 6.5038 1.6117V3.57968H3.3542C1.50469 3.57968 0 5.08438 0 6.93388V16.5125C0 18.0232 1.22905 19.2523 2.73982 19.2523H19.0021C20.5128 19.2523 21.7419 18.0233 21.7419 16.5125V6.93388C21.7419 5.08438 20.2372 3.57968 18.3877 3.57968ZM7.7816 1.6117C7.7816 1.42133 7.93227 1.2778 8.13206 1.2778H13.6099C13.8097 1.2778 13.9603 1.42133 13.9603 1.6117V3.57968H7.7816V1.6117ZM20.464 16.5125C20.4641 17.3186 19.8083 17.9745 19.0021 17.9745H2.73982C1.93363 17.9745 1.2778 17.3186 1.2778 16.5125V10.5446C1.4779 10.6702 1.69667 10.7719 1.93142 10.8444C1.94365 10.8482 1.95596 10.8516 1.96836 10.8547L8.47743 12.4454V12.9709C8.47743 13.7959 9.14862 14.4671 9.97363 14.4671H11.7683C12.5933 14.4671 13.2645 13.7959 13.2645 12.9709V12.4454L19.7735 10.8547C19.786 10.8517 19.7983 10.8483 19.8105 10.8444C20.0452 10.7719 20.264 10.6702 20.4641 10.5446V16.5125H20.464ZM9.75527 12.9709V11.1682C9.75527 11.0478 9.85324 10.9498 9.97367 10.9498H11.7683C11.8887 10.9498 11.9867 11.0478 11.9867 11.1682V12.9709C11.9867 13.0913 11.8887 13.1893 11.7683 13.1893H9.97367C9.85324 13.1893 9.75527 13.0913 9.75527 12.9709ZM20.4641 8.22145C20.4641 8.86377 20.0574 9.4229 19.4499 9.61832L13.2636 11.1302C13.2433 10.3227 12.5806 9.67192 11.7683 9.67192H9.97367C9.1614 9.67192 8.4987 10.3227 8.4784 11.1302L2.29199 9.61837C1.68461 9.4229 1.2778 8.86377 1.2778 8.22145V6.93388C1.2778 5.78895 2.20926 4.85749 3.3542 4.85749H18.3877C19.5326 4.85749 20.4641 5.78895 20.4641 6.93388V8.22145H20.4641Z" fill="#0A1A26"/>
</svg>
