<svg width="21" height="20" viewBox="0 0 21 20" fill="none" xmlns="http://www.w3.org/2000/svg">
<path d="M14.6893 12.2686C15.516 13.4319 15.4079 15.0556 14.3649 16.0985L11.4075 19.056L11.0598 18.7083C10.0056 17.654 9.56772 16.2167 9.74633 14.8443" stroke="white" stroke-width="1.17275" stroke-miterlimit="10" stroke-linecap="round" stroke-linejoin="round"/>
<path d="M7.43557 4.9986C6.26853 4.12334 4.60537 4.21646 3.54387 5.27791L0.586426 8.2354L0.934108 8.58308C1.98978 9.63875 3.42953 10.0763 4.80356 9.89582" stroke="white" stroke-width="1.17275" stroke-miterlimit="10" stroke-linecap="round" stroke-linejoin="round"/>
<path d="M18.6063 6.13345C17.3683 9.68787 14.7936 12.7099 11.3093 14.4706L10.7534 14.7515L7.58722 15.2361L4.40527 12.0542L4.88993 8.88801L4.9825 8.70483C6.81606 5.07626 10.0117 2.44323 13.7412 1.26837C15.5336 0.703769 17.4492 0.47559 19.3964 0.63614L19.4143 0.637625C19.496 2.53983 19.2101 4.39993 18.6063 6.13345Z" stroke="white" stroke-width="1.17275" stroke-miterlimit="10" stroke-linecap="round" stroke-linejoin="round"/>
<path d="M13.7974 1.32422L18.5504 6.07727" stroke="white" stroke-width="1.17275" stroke-miterlimit="10" stroke-linecap="round" stroke-linejoin="round"/>
<path d="M12.0567 9.57051C13.0238 9.57051 13.8078 8.78653 13.8078 7.81943C13.8078 6.85234 13.0238 6.06836 12.0567 6.06836C11.0896 6.06836 10.3057 6.85234 10.3057 7.81943C10.3057 8.78653 11.0896 9.57051 12.0567 9.57051Z" stroke="white" stroke-width="1.17275" stroke-miterlimit="10" stroke-linecap="round" stroke-linejoin="round"/>
<path d="M10.6706 14.6682L4.9751 8.97266" stroke="white" stroke-width="1.17275" stroke-miterlimit="10" stroke-linecap="round" stroke-linejoin="round"/>
<path d="M4.39901 15.4062L2.51221 17.2931" stroke="white" stroke-width="1.17275" stroke-miterlimit="10" stroke-linecap="round" stroke-linejoin="round"/>
<path d="M2.71936 13.7266L0.83252 15.6134" stroke="white" stroke-width="1.17275" stroke-miterlimit="10" stroke-linecap="round" stroke-linejoin="round"/>
<path d="M6.0787 17.0859L4.19189 18.9727" stroke="white" stroke-width="1.17275" stroke-miterlimit="10" stroke-linecap="round" stroke-linejoin="round"/>
</svg>
