<svg width="18" height="18" viewBox="0 0 18 18" fill="none" xmlns="http://www.w3.org/2000/svg">
<path d="M16.875 1.4524C15.3414 0.586654 12.3904 0 9.00004 0C5.60967 0 2.65868 0.586654 1.125 1.4524C0.409807 1.8545 0 2.3181 0 2.8125V15.1886C0 15.683 0.409772 16.1467 1.125 16.5488C2.65868 17.4145 5.60964 18.0012 9 18.0012C12.3904 18.0012 15.3413 17.4145 16.875 16.5488C17.5902 16.1467 18 15.683 18 15.1886V2.8125C18 2.3181 17.5902 1.8545 16.875 1.4524ZM9.00004 1.125C13.7769 1.125 16.4334 2.27637 16.8443 2.8125C16.4334 3.34863 13.7769 4.5 9.00004 4.5C4.2232 4.5 1.56666 3.34863 1.15576 2.8125C1.56666 2.27637 4.22316 1.125 9.00004 1.125ZM9.00004 5.625C12.3904 5.625 15.3414 5.03831 16.875 4.1726V6.75H16.8443C16.4334 7.28613 13.7769 8.4375 9.00004 8.4375C4.2232 8.4375 1.56666 7.28613 1.15576 6.75H1.125V4.1726C2.65868 5.03831 5.60964 5.625 9.00004 5.625ZM16.875 15.1886H16.8443C16.4334 15.7247 13.7769 16.8761 9.00004 16.8761C4.2232 16.8761 1.56666 15.7248 1.15576 15.1886H1.125V12.0487C2.65868 12.9144 5.60964 13.5011 9 13.5011C12.3904 13.5011 15.3413 12.9144 16.875 12.0487V15.1886H16.875ZM16.875 10.6875H16.8443C16.4334 11.2247 13.7769 12.3761 9.00004 12.3761C4.2232 12.3761 1.56666 11.2247 1.15576 10.6875H1.125V8.1101C2.65868 8.97581 5.60964 9.5625 9 9.5625C12.3904 9.5625 15.3413 8.97581 16.875 8.1101V10.6875H16.875Z" fill="white"/>
</svg>
