<svg width="46" height="59" viewBox="0 0 46 59" fill="none" xmlns="http://www.w3.org/2000/svg">
<path d="M33.9607 0H11.8408C5.31189 0 0 5.31189 0 11.8408V47.1592C0 53.6881 5.31189 59 11.8408 59H45.8015V11.8408C45.8015 5.31189 40.4896 0 33.9607 0ZM41.1779 54.3765H11.8408C7.85506 54.3765 4.62354 51.1454 4.62354 47.1592V11.8408C4.62354 7.85506 7.85506 4.62354 11.8408 4.62354H33.9607C37.9464 4.62354 41.1779 7.85506 41.1779 11.8408V54.3765ZM23.2999 26.2432H36.4804V49.5188H30.233C30.1608 49.1625 30.0029 48.6031 29.7549 47.8363C29.5068 47.074 29.2722 46.4064 29.0602 45.8335C28.8798 46.1222 28.6136 46.5011 28.2573 46.9837C27.9054 47.4619 27.4138 47.9355 26.7913 48.4001C26.1688 48.8602 25.42 49.2617 24.5494 49.6C23.6788 49.9383 22.6369 50.1052 21.428 50.1052H18.3426C16.7774 50.1052 15.4332 49.8301 14.3145 49.2797C13.1913 48.7294 12.2576 47.9897 11.5133 47.0649C10.7645 46.1402 10.2097 45.0441 9.85784 43.7811C9.50149 42.5181 9.32106 41.1558 9.32106 39.6943V20.2664C9.32106 18.7012 9.51953 17.2487 9.91197 15.9136C10.2999 14.5784 10.9404 13.4146 11.8336 12.4177C12.7222 11.4208 13.895 10.6495 15.3565 10.0947C16.8135 9.54434 18.6133 9.26919 20.7468 9.26919H24.9509C27.0845 9.26919 28.8753 9.5263 30.3142 10.0405C31.7576 10.5593 32.9034 11.2675 33.7559 12.1786C34.613 13.0853 35.2174 14.1544 35.5738 15.3813C35.9301 16.6082 36.106 17.9163 36.106 19.3057V22.7744H26.9762V22.0302C26.9762 20.4649 26.6966 19.238 26.1282 18.3449C25.5598 17.4517 24.4953 17.0097 22.9255 17.0097C21.5227 17.0097 20.5213 17.4517 19.9304 18.3449C19.335 19.238 19.0373 20.4649 19.0373 22.0302V37.1277H19.0418C19.0418 38.7967 19.3666 40.1138 20.0161 41.0792C20.6702 42.0445 21.7753 42.5271 23.3405 42.5271C24.8562 42.5271 25.9342 42.0309 26.5883 41.0386C27.2378 40.0507 27.5671 38.7471 27.5671 37.1277V33.2891H23.2999V26.2432Z" fill="white"/>
</svg>
