<svg width="19" height="22" viewBox="0 0 19 22" fill="none" xmlns="http://www.w3.org/2000/svg">
<path d="M1.24811e-07 4.09887V9.06228C-0.000741043 14.3251 3.29955 19.1314 8.2133 21.0213C8.60981 21.174 9.02707 21.2496 9.44434 21.2496C9.8616 21.2496 10.2789 21.1732 10.6761 21.0213L11.4128 20.7374C15.9545 18.9906 18.8894 14.5971 18.8887 9.5455V4.09887C18.8887 3.69124 18.5663 3.35625 18.1594 3.34068C15.4313 3.2347 12.6498 2.15931 9.89198 0.145634C9.62517 -0.0485446 9.2635 -0.0485446 8.99669 0.145634C6.23817 2.15931 3.45667 3.2347 0.729281 3.34068C0.322396 3.35625 1.24811e-07 3.69124 1.24811e-07 4.09887ZM1.51785 4.80888C4.16224 4.55912 6.82293 3.51263 9.44434 1.69017C12.065 3.51263 14.7264 4.55912 17.3708 4.80888V9.5455C17.3716 13.9642 14.8191 17.8011 10.8673 19.3204L10.1314 19.6042C9.68817 19.7747 9.19976 19.7747 8.75804 19.6042C4.42682 17.9382 1.51711 13.7018 1.51785 9.06228V4.80888Z" fill="white"/>
</svg>
