<svg width="24" height="22" viewBox="0 0 24 22" fill="none" xmlns="http://www.w3.org/2000/svg">
<path d="M21.7184 7.72637C21.2691 7.66111 20.8404 7.49535 20.4641 7.24144C20.0878 6.98752 19.7736 6.65198 19.545 6.25981C19.3164 5.86764 19.1791 5.42895 19.1435 4.97639C19.1079 4.52384 19.1749 4.06908 19.3394 3.646C19.444 3.3694 19.4594 3.067 19.3835 2.78121C19.3076 2.49541 19.1441 2.24055 18.916 2.05234C17.909 1.20675 16.7628 0.542483 15.5285 0.0891439C15.2475 -0.0152652 14.9406 -0.0283103 14.6517 0.0518669C14.3628 0.132044 14.1065 0.301354 13.9195 0.535675C13.6379 0.895712 13.2781 1.18691 12.8672 1.38717C12.4564 1.58744 12.0053 1.69152 11.5482 1.69152C11.0912 1.69152 10.6401 1.58744 10.2293 1.38717C9.81841 1.18691 9.45856 0.895712 9.177 0.535675C8.98993 0.301354 8.73369 0.132044 8.44478 0.0518669C8.15586 -0.0283103 7.84902 -0.0152652 7.56795 0.0891439C6.42827 0.507684 5.36269 1.10544 4.41144 1.85987C4.17165 2.0497 3.99894 2.3113 3.91859 2.60639C3.83824 2.90147 3.85447 3.21453 3.9649 3.49972C4.14256 3.934 4.21596 4.40387 4.17922 4.87165C4.14248 5.33942 3.99662 5.79207 3.75334 6.19329C3.51006 6.59451 3.17614 6.93313 2.77836 7.18199C2.38058 7.43084 1.93 7.58301 1.46279 7.62628C1.15946 7.65871 0.874564 7.78768 0.650036 7.99419C0.425508 8.2007 0.273217 8.47384 0.215583 8.7734C0.0722297 9.483 1.66605e-05 10.2051 1.66605e-05 10.9291C-0.00103699 11.5351 0.047888 12.1403 0.146294 12.7383C0.19527 13.0475 0.344728 13.3319 0.571561 13.5476C0.798394 13.7633 1.08997 13.8982 1.4012 13.9316C1.87868 13.9764 2.33847 14.1349 2.74211 14.3939C3.14574 14.6529 3.48147 15.0048 3.72118 15.4202C3.9609 15.8355 4.09764 16.3023 4.11995 16.7813C4.14226 17.2604 4.0495 17.7378 3.84942 18.1737C3.71849 18.4572 3.68601 18.7763 3.75714 19.0803C3.82828 19.3844 3.99895 19.656 4.24206 19.852C5.24299 20.6822 6.37815 21.3357 7.59874 21.7844C7.75483 21.8385 7.9186 21.8671 8.08377 21.8691C8.31024 21.8686 8.5333 21.8138 8.73423 21.7093C8.93517 21.6048 9.10812 21.4537 9.23859 21.2686C9.51299 20.8688 9.88081 20.542 10.3101 20.3166C10.7395 20.0912 11.2173 19.974 11.7022 19.9752C12.172 19.9758 12.6352 20.086 13.0549 20.2972C13.4746 20.5084 13.8392 20.8147 14.1196 21.1916C14.3062 21.4424 14.5704 21.6244 14.8712 21.7093C15.172 21.7943 15.4924 21.7774 15.7826 21.6612C16.8987 21.212 17.9377 20.5912 18.8621 19.8212C19.0943 19.6292 19.2597 19.3685 19.3344 19.0766C19.4091 18.7847 19.3893 18.4767 19.2778 18.1968C19.0968 17.7681 19.0178 17.3032 19.0472 16.8387C19.0766 16.3743 19.2136 15.9231 19.4473 15.5206C19.6809 15.1182 20.005 14.7756 20.3938 14.5199C20.7826 14.2641 21.2255 14.1023 21.6876 14.0471C21.9872 14.0057 22.2659 13.8699 22.4832 13.6595C22.7005 13.4491 22.8452 13.175 22.8963 12.8769C23.0199 12.2347 23.0869 11.5829 23.0965 10.9291C23.0966 10.2394 23.0322 9.55117 22.904 8.87349C22.852 8.58193 22.7095 8.31417 22.4966 8.10825C22.2838 7.90232 22.0115 7.7687 21.7184 7.72637ZM21.395 12.5304C20.7174 12.6294 20.0709 12.8801 19.5036 13.2637C18.9364 13.6474 18.4631 14.1541 18.1189 14.7461C17.7748 15.3382 17.5687 16.0003 17.5161 16.6831C17.4635 17.3658 17.5657 18.0517 17.8151 18.6895C17.0516 19.3292 16.1949 19.8485 15.2745 20.2292C14.8509 19.6789 14.3062 19.2335 13.6827 18.9278C13.0592 18.622 12.3736 18.4641 11.6791 18.4662C10.9646 18.4701 10.2609 18.6413 9.62451 18.9662C8.98811 19.2911 8.43669 19.7606 8.01448 20.337C7.0175 19.9578 6.08716 19.4225 5.2583 18.7511C5.53915 18.1053 5.66523 17.4029 5.62646 16.6998C5.5877 15.9967 5.38517 15.3124 5.03504 14.7015C4.68117 14.0838 4.18778 13.5575 3.59426 13.1645C3.00075 12.7715 2.32355 12.5227 1.61677 12.438C1.55498 11.9375 1.52926 11.4333 1.53978 10.9291C1.53998 10.3322 1.59669 9.73678 1.70915 9.15065C2.39855 9.06987 3.06026 8.83218 3.64347 8.45583C4.22669 8.07947 4.7159 7.57446 5.07353 6.97958C5.43067 6.39076 5.64827 5.72799 5.70966 5.04207C5.77105 4.35614 5.67459 3.66527 5.42768 3.02239C6.21334 2.40607 7.08818 1.91283 8.02218 1.55962C8.44967 2.08159 8.98772 2.50215 9.59749 2.79092C10.2073 3.0797 10.8735 3.22949 11.5482 3.22949C12.2229 3.22949 12.8892 3.0797 13.499 2.79092C14.1087 2.50215 14.6468 2.08159 15.0743 1.55962C16.0892 1.94307 17.0335 2.49198 17.869 3.18407C17.6407 3.81268 17.5535 4.48383 17.6137 5.1499C17.6739 5.81597 17.8799 6.46064 18.2172 7.03816C18.5544 7.61568 19.0146 8.11191 19.5652 8.49162C20.1157 8.87134 20.743 9.12525 21.4027 9.23533C21.5029 9.7944 21.5544 10.3611 21.5567 10.9291C21.5546 11.4654 21.5108 12.0008 21.4258 12.5304H21.395Z" fill="white"/>
<path d="M11.548 6.31055C10.6344 6.31055 9.7413 6.58146 8.98166 7.08904C8.22202 7.59661 7.62996 8.31804 7.28034 9.16211C6.93071 10.0062 6.83924 10.935 7.01747 11.831C7.19571 12.7271 7.63565 13.5501 8.28167 14.1962C8.92769 14.8422 9.75077 15.2821 10.6468 15.4604C11.5429 15.6386 12.4717 15.5471 13.3157 15.1975C14.1598 14.8479 14.8812 14.2558 15.3888 13.4962C15.8964 12.7365 16.1673 11.8434 16.1673 10.9298C16.1673 9.70472 15.6806 8.52979 14.8143 7.6635C13.948 6.79722 12.7731 6.31055 11.548 6.31055ZM11.548 14.0094C10.9389 14.0094 10.3435 13.8287 9.83711 13.4904C9.33068 13.152 8.93597 12.671 8.70289 12.1083C8.46981 11.5456 8.40882 10.9264 8.52765 10.329C8.64647 9.73168 8.93977 9.18296 9.37045 8.75228C9.80113 8.3216 10.3498 8.02831 10.9472 7.90948C11.5446 7.79066 12.1638 7.85164 12.7265 8.08472C13.2892 8.31781 13.7701 8.71252 14.1085 9.21894C14.4469 9.72537 14.6275 10.3208 14.6275 10.9298C14.6275 11.7466 14.3031 12.5299 13.7256 13.1074C13.148 13.6849 12.3647 14.0094 11.548 14.0094Z" fill="white"/>
</svg>
