<svg width="21" height="18" viewBox="0 0 21 18" fill="none" xmlns="http://www.w3.org/2000/svg">
<path d="M17.9238 9.20442H15.8682C15.5884 9.20442 15.3176 9.24264 15.0598 9.31295C14.5513 8.31331 13.5131 7.62646 12.3168 7.62646H8.68321C7.48691 7.62646 6.44872 8.31331 5.94021 9.31295C5.68243 9.24264 5.41156 9.20442 5.13179 9.20442H3.07617C1.37997 9.20442 0 10.5844 0 12.2806V15.5667C0 16.5844 0.827982 17.4124 1.8457 17.4124H19.1543C20.172 17.4124 21 16.5844 21 15.5667V12.2806C21 10.5844 19.62 9.20442 17.9238 9.20442ZM5.60704 10.7027V16.182H1.8457C1.50646 16.182 1.23047 15.906 1.23047 15.5667V12.2806C1.23047 11.2629 2.05845 10.4349 3.07617 10.4349H5.13179C5.29881 10.4349 5.46053 10.4576 5.61451 10.4994C5.61008 10.5667 5.60704 10.6344 5.60704 10.7027ZM14.1625 16.182H6.83751V10.7027C6.83751 9.68496 7.66549 8.85697 8.68321 8.85697H12.3168C13.3345 8.85697 14.1625 9.68496 14.1625 10.7027V16.182ZM19.7695 15.5667C19.7695 15.906 19.4935 16.182 19.1543 16.182H15.393V10.7027C15.393 10.6343 15.3899 10.5666 15.3855 10.4994C15.5395 10.4576 15.7012 10.4349 15.8682 10.4349H17.9238C18.9415 10.4349 19.7695 11.2629 19.7695 12.2806V15.5667Z" fill="white"/>
<path d="M4.10364 3.39404C2.59636 3.39404 1.37012 4.62029 1.37012 6.12757C1.37008 7.63485 2.59636 8.8611 4.10364 8.8611C5.61089 8.8611 6.83717 7.63485 6.83717 6.12757C6.83717 4.62029 5.61093 3.39404 4.10364 3.39404ZM4.1036 7.63063C3.2748 7.63063 2.60054 6.95637 2.60054 6.12757C2.60054 5.29877 3.2748 4.62451 4.1036 4.62451C4.93241 4.62451 5.60666 5.29877 5.60666 6.12757C5.60666 6.95637 4.93241 7.63063 4.1036 7.63063Z" fill="white"/>
<path d="M10.4996 0C8.4859 0 6.84766 1.63825 6.84766 3.65195C6.84766 5.66565 8.4859 7.3039 10.4996 7.3039C12.5133 7.3039 14.1516 5.66565 14.1516 3.65195C14.1516 1.63829 12.5133 0 10.4996 0ZM10.4996 6.07343C9.16438 6.07343 8.07812 4.98717 8.07812 3.65195C8.07812 2.31677 9.16438 1.23047 10.4996 1.23047C11.8348 1.23047 12.9211 2.31673 12.9211 3.65195C12.9211 4.98717 11.8348 6.07343 10.4996 6.07343Z" fill="white"/>
<path d="M16.8956 3.39404C15.3884 3.39404 14.1621 4.62029 14.1621 6.12757C14.1622 7.63485 15.3884 8.8611 16.8956 8.8611C18.4029 8.8611 19.6292 7.63485 19.6292 6.12757C19.6292 4.62029 18.4029 3.39404 16.8956 3.39404ZM16.8956 7.63063C16.0669 7.63063 15.3926 6.95637 15.3926 6.12757C15.3926 5.29877 16.0669 4.62451 16.8956 4.62451C17.7244 4.62451 18.3987 5.29877 18.3987 6.12757C18.3987 6.95637 17.7244 7.63063 16.8956 7.63063Z" fill="white"/>
</svg>
