<svg width="16" height="11" viewBox="0 0 16 11" fill="none" xmlns="http://www.w3.org/2000/svg">
<path d="M15.9648 5.32865C15.9418 5.27365 15.3777 3.97269 14.118 2.66256C12.9492 1.44833 10.9411 0 8 0C5.05895 0 3.05079 1.44833 1.88196 2.66256C0.622281 3.97269 0.0582069 5.27154 0.0351557 5.32865C0.0119774 5.38281 0 5.44143 0 5.5007C0 5.55998 0.0119774 5.6186 0.0351557 5.67276C0.0582069 5.72705 0.622281 7.02801 1.88196 8.33814C3.05079 9.55237 5.05895 11 8 11C10.9411 11 12.9492 9.55237 14.118 8.33814C15.3777 7.02801 15.9418 5.72917 15.9648 5.67276C15.988 5.6186 16 5.55998 16 5.5007C16 5.44143 15.988 5.38281 15.9648 5.32865ZM8 10.1538C5.87252 10.1538 4.01487 9.34859 2.4779 7.76135C1.8336 7.09539 1.28839 6.33322 0.860251 5.5C1.28827 4.66691 1.8335 3.90496 2.4779 3.23936C4.01487 1.65141 5.87252 0.846154 8 0.846154C10.1275 0.846154 11.9851 1.65141 13.5221 3.23936C14.1665 3.90496 14.7117 4.66691 15.1397 5.5C14.7079 6.36096 12.5424 10.1538 8 10.1538ZM8 2.25641C7.38318 2.25641 6.78022 2.44664 6.26735 2.80305C5.75449 3.15946 5.35476 3.66604 5.11871 4.25873C4.88267 4.85142 4.82091 5.5036 4.94124 6.13279C5.06158 6.76199 5.3586 7.33994 5.79476 7.79356C6.23091 8.24719 6.78661 8.55611 7.39158 8.68126C7.99654 8.80642 8.6236 8.74219 9.19347 8.49669C9.76333 8.25119 10.2504 7.83545 10.5931 7.30204C10.9358 6.76864 11.1187 6.14152 11.1187 5.5C11.1176 4.64009 10.7887 3.81572 10.2041 3.20767C9.61942 2.59962 8.8268 2.25753 8 2.25641ZM8 7.89744C7.54409 7.89744 7.09842 7.75683 6.71935 7.4934C6.34027 7.22996 6.04482 6.85553 5.87035 6.41746C5.69589 5.97938 5.65024 5.49734 5.73918 5.03228C5.82812 4.56723 6.04766 4.14004 6.37004 3.80476C6.69241 3.46947 7.10315 3.24114 7.5503 3.14863C7.99744 3.05612 8.46092 3.1036 8.88213 3.28506C9.30333 3.46651 9.66334 3.7738 9.91663 4.16806C10.1699 4.56231 10.3051 5.02583 10.3051 5.5C10.3051 6.13584 10.0623 6.74564 9.62996 7.19524C9.19767 7.64485 8.61135 7.89744 8 7.89744Z" fill="#131721"/>
</svg>
