<svg width="296" height="37" viewBox="0 0 296 37" fill="none" xmlns="http://www.w3.org/2000/svg">
<path d="M3.63576 13.194L-0.000238284 0.0540304H1.40376L4.69776 12.312L4.06776 11.952H5.81376L5.12976 12.312L7.81176 0.630031H9.10776L6.15576 13.194H3.63576ZM11.5378 13.194L8.29776 0.630031H9.62976L12.6178 12.312L11.9518 11.952H13.7338L13.0498 12.312L16.0198 0.0540304H17.3878L14.0578 13.194H11.5378ZM23.3231 13.5C22.5071 13.5 21.7991 13.362 21.1991 13.086C20.5991 12.798 20.1071 12.42 19.7231 11.952C19.3391 11.472 19.0511 10.938 18.8591 10.35C18.6791 9.76203 18.5891 9.15603 18.5891 8.53203V8.28003C18.5891 7.66803 18.6791 7.06803 18.8591 6.48003C19.0511 5.89203 19.3391 5.36403 19.7231 4.89603C20.1071 4.42803 20.5871 4.05603 21.1631 3.78003C21.7511 3.49203 22.4351 3.34803 23.2151 3.34803C24.2111 3.34803 25.0391 3.57003 25.6991 4.01403C26.3711 4.45803 26.8751 5.02803 27.2111 5.72403C27.5471 6.40803 27.7151 7.14603 27.7151 7.93803V8.64003H19.2011V7.59603H26.7791L26.4371 8.11803C26.4371 7.41003 26.3111 6.79203 26.0591 6.26403C25.8191 5.72403 25.4591 5.30403 24.9791 5.00403C24.5111 4.69203 23.9231 4.53603 23.2151 4.53603C22.4711 4.53603 21.8531 4.71003 21.3611 5.05803C20.8691 5.40603 20.4971 5.86803 20.2451 6.44403C20.0051 7.02003 19.8851 7.67403 19.8851 8.40603C19.8851 9.12603 20.0051 9.78603 20.2451 10.386C20.4971 10.974 20.8751 11.442 21.3791 11.79C21.8951 12.138 22.5431 12.312 23.3231 12.312C24.1511 12.312 24.8231 12.126 25.3391 11.754C25.8551 11.37 26.1731 10.92 26.2931 10.404H27.5531C27.4331 11.04 27.1811 11.592 26.7971 12.06C26.4131 12.516 25.9271 12.87 25.3391 13.122C24.7511 13.374 24.0791 13.5 23.3231 13.5ZM30.4039 13.194V0.0540304H31.7539V13.194H30.4039ZM29.0179 1.15203V0.0540304H31.7539V1.15203H29.0179ZM39.2673 13.5C38.4633 13.5 37.7613 13.362 37.1613 13.086C36.5733 12.798 36.0813 12.414 35.6853 11.934C35.2893 11.442 34.9893 10.902 34.7853 10.314C34.5933 9.72603 34.4973 9.13203 34.4973 8.53203V8.28003C34.4973 7.66803 34.5933 7.07403 34.7853 6.49803C34.9893 5.91003 35.2893 5.38203 35.6853 4.91403C36.0813 4.43403 36.5733 4.05603 37.1613 3.78003C37.7613 3.49203 38.4513 3.34803 39.2313 3.34803C40.0233 3.34803 40.7253 3.49203 41.3373 3.78003C41.9613 4.06803 42.4653 4.47603 42.8493 5.00403C43.2333 5.53203 43.4613 6.15603 43.5333 6.87603H42.2373C42.1293 6.21603 41.8173 5.67003 41.3013 5.23803C40.7973 4.79403 40.1073 4.57203 39.2313 4.57203C38.4753 4.57203 37.8453 4.74603 37.3413 5.09403C36.8493 5.43003 36.4773 5.89203 36.2253 6.48003C35.9733 7.05603 35.8473 7.69803 35.8473 8.40603C35.8473 9.10203 35.9733 9.75003 36.2253 10.35C36.4773 10.938 36.8553 11.412 37.3593 11.772C37.8633 12.12 38.4993 12.294 39.2673 12.294C39.8553 12.294 40.3653 12.192 40.7973 11.988C41.2413 11.772 41.5953 11.484 41.8593 11.124C42.1353 10.764 42.2973 10.368 42.3453 9.93603H43.6413C43.5933 10.656 43.3653 11.286 42.9573 11.826C42.5613 12.354 42.0453 12.768 41.4093 13.068C40.7733 13.356 40.0593 13.5 39.2673 13.5ZM50.3826 13.5C49.5666 13.5 48.8466 13.362 48.2226 13.086C47.6106 12.798 47.0886 12.42 46.6566 11.952C46.2366 11.472 45.9126 10.938 45.6846 10.35C45.4686 9.76203 45.3606 9.16203 45.3606 8.55003V8.29803C45.3606 7.68603 45.4746 7.08603 45.7026 6.49803C45.9306 5.89803 46.2606 5.36403 46.6926 4.89603C47.1246 4.42803 47.6466 4.05603 48.2586 3.78003C48.8826 3.49203 49.5906 3.34803 50.3826 3.34803C51.1866 3.34803 51.8946 3.49203 52.5066 3.78003C53.1306 4.05603 53.6586 4.42803 54.0906 4.89603C54.5226 5.36403 54.8466 5.89803 55.0626 6.49803C55.2906 7.08603 55.4046 7.68603 55.4046 8.29803V8.55003C55.4046 9.16203 55.2966 9.76203 55.0806 10.35C54.8646 10.938 54.5406 11.472 54.1086 11.952C53.6886 12.42 53.1666 12.798 52.5426 13.086C51.9186 13.362 51.1986 13.5 50.3826 13.5ZM50.3826 12.294C51.1746 12.294 51.8406 12.12 52.3806 11.772C52.9326 11.412 53.3526 10.944 53.6406 10.368C53.9286 9.78003 54.0726 9.13203 54.0726 8.42403C54.0726 7.70403 53.9226 7.05603 53.6226 6.48003C53.3346 5.89203 52.9146 5.43003 52.3626 5.09403C51.8106 4.74603 51.1506 4.57203 50.3826 4.57203C49.6266 4.57203 48.9726 4.74603 48.4206 5.09403C47.8686 5.43003 47.4426 5.89203 47.1426 6.48003C46.8546 7.05603 46.7106 7.70403 46.7106 8.42403C46.7106 9.13203 46.8546 9.78003 47.1426 10.368C47.4306 10.944 47.8446 11.412 48.3846 11.772C48.9366 12.12 49.6026 12.294 50.3826 12.294ZM58.1576 13.194V3.65403H59.2376V7.66803H59.0216C59.0216 6.79203 59.1416 6.03603 59.3816 5.40003C59.6336 4.76403 60.0056 4.27203 60.4976 3.92403C60.9896 3.56403 61.6136 3.38403 62.3696 3.38403H62.4236C63.1796 3.38403 63.8036 3.55803 64.2956 3.90603C64.7876 4.25403 65.1536 4.74603 65.3936 5.38203C65.6336 6.01803 65.7536 6.78003 65.7536 7.66803H65.3216C65.3216 6.79203 65.4416 6.03603 65.6816 5.40003C65.9336 4.76403 66.3056 4.27203 66.7976 3.92403C67.3016 3.56403 67.9316 3.38403 68.6876 3.38403H68.7416C69.4976 3.38403 70.1216 3.55803 70.6136 3.90603C71.1176 4.25403 71.4896 4.74603 71.7296 5.38203C71.9816 6.01803 72.1076 6.78003 72.1076 7.66803V13.194H70.7576V7.36203C70.7576 6.52203 70.5536 5.85603 70.1456 5.36403C69.7376 4.87203 69.1496 4.62603 68.3816 4.62603C67.5896 4.62603 66.9596 4.88403 66.4916 5.40003C66.0356 5.90403 65.8076 6.58803 65.8076 7.45203V13.194H64.4576V7.36203C64.4576 6.52203 64.2536 5.85603 63.8456 5.36403C63.4376 4.87203 62.8496 4.62603 62.0816 4.62603C61.2896 4.62603 60.6596 4.88403 60.1916 5.40003C59.7356 5.90403 59.5076 6.58803 59.5076 7.45203V13.194H58.1576ZM79.4501 13.5C78.6341 13.5 77.9261 13.362 77.3261 13.086C76.7261 12.798 76.2341 12.42 75.8501 11.952C75.4661 11.472 75.1781 10.938 74.9861 10.35C74.8061 9.76203 74.7161 9.15603 74.7161 8.53203V8.28003C74.7161 7.66803 74.8061 7.06803 74.9861 6.48003C75.1781 5.89203 75.4661 5.36403 75.8501 4.89603C76.2341 4.42803 76.7141 4.05603 77.2901 3.78003C77.8781 3.49203 78.5621 3.34803 79.3421 3.34803C80.3381 3.34803 81.1661 3.57003 81.8261 4.01403C82.4981 4.45803 83.0021 5.02803 83.3381 5.72403C83.6741 6.40803 83.8421 7.14603 83.8421 7.93803V8.64003H75.3281V7.59603H82.9061L82.5641 8.11803C82.5641 7.41003 82.4381 6.79203 82.1861 6.26403C81.9461 5.72403 81.5861 5.30403 81.1061 5.00403C80.6381 4.69203 80.0501 4.53603 79.3421 4.53603C78.5981 4.53603 77.9801 4.71003 77.4881 5.05803C76.9961 5.40603 76.6241 5.86803 76.3721 6.44403C76.1321 7.02003 76.0121 7.67403 76.0121 8.40603C76.0121 9.12603 76.1321 9.78603 76.3721 10.386C76.6241 10.974 77.0021 11.442 77.5061 11.79C78.0221 12.138 78.6701 12.312 79.4501 12.312C80.2781 12.312 80.9501 12.126 81.4661 11.754C81.9821 11.37 82.3001 10.92 82.4201 10.404H83.6801C83.5601 11.04 83.3081 11.592 82.9241 12.06C82.5401 12.516 82.0541 12.87 81.4661 13.122C80.8781 13.374 80.2061 13.5 79.4501 13.5ZM95.556 13.5C94.716 13.5 93.978 13.314 93.342 12.942C92.718 12.57 92.226 12.048 91.866 11.376C91.518 10.704 91.332 9.93003 91.308 9.05403H91.722V13.194H90.642V0.0540304H91.992V6.62403L91.47 7.83003C91.494 6.87003 91.686 6.06003 92.046 5.40003C92.418 4.72803 92.91 4.21803 93.522 3.87003C94.146 3.52203 94.854 3.34803 95.646 3.34803C96.342 3.34803 96.972 3.48003 97.536 3.74403C98.1 4.00803 98.58 4.36803 98.976 4.82403C99.384 5.28003 99.69 5.80803 99.894 6.40803C100.11 6.99603 100.218 7.62003 100.218 8.28003V8.53203C100.218 9.18003 100.11 9.80403 99.894 10.404C99.678 10.992 99.366 11.52 98.958 11.988C98.562 12.456 98.076 12.828 97.5 13.104C96.924 13.368 96.276 13.5 95.556 13.5ZM95.412 12.312C96.132 12.312 96.75 12.138 97.266 11.79C97.782 11.442 98.178 10.974 98.454 10.386C98.73 9.79803 98.868 9.13803 98.868 8.40603C98.868 7.66203 98.724 7.00203 98.436 6.42603C98.16 5.83803 97.758 5.37603 97.23 5.04003C96.714 4.70403 96.108 4.53603 95.412 4.53603C94.764 4.53603 94.176 4.68003 93.648 4.96803C93.12 5.25603 92.7 5.66403 92.388 6.19203C92.088 6.70803 91.938 7.32003 91.938 8.02803V8.91003C91.938 9.58203 92.088 10.176 92.388 10.692C92.7 11.196 93.12 11.592 93.648 11.88C94.176 12.168 94.764 12.312 95.412 12.312ZM108.743 13.194V10.332H108.527V6.94803C108.527 6.24003 108.341 5.70003 107.969 5.32803C107.597 4.94403 107.021 4.75203 106.241 4.75203C105.881 4.75203 105.515 4.75803 105.143 4.77003C104.783 4.78203 104.435 4.80003 104.099 4.82403C103.775 4.83603 103.487 4.85403 103.235 4.87803V3.69003C103.499 3.66603 103.769 3.64203 104.045 3.61803C104.321 3.59403 104.603 3.58203 104.891 3.58203C105.191 3.57003 105.479 3.56403 105.755 3.56403C106.727 3.56403 107.507 3.68403 108.095 3.92403C108.695 4.16403 109.133 4.54203 109.409 5.05803C109.685 5.56203 109.823 6.23403 109.823 7.07403V13.194H108.743ZM105.521 13.446C104.849 13.446 104.255 13.326 103.739 13.086C103.223 12.846 102.821 12.498 102.533 12.042C102.257 11.586 102.119 11.034 102.119 10.386C102.119 9.75003 102.263 9.21003 102.551 8.76603C102.851 8.32203 103.277 7.98603 103.829 7.75803C104.393 7.51803 105.071 7.39803 105.863 7.39803H108.653V8.42403H105.773C105.017 8.42403 104.435 8.61003 104.027 8.98203C103.631 9.34203 103.433 9.81603 103.433 10.404C103.433 11.004 103.643 11.484 104.063 11.844C104.483 12.192 105.053 12.366 105.773 12.366C106.217 12.366 106.643 12.288 107.051 12.132C107.459 11.964 107.801 11.688 108.077 11.304C108.353 10.908 108.503 10.368 108.527 9.68403L108.923 10.242C108.875 10.95 108.707 11.544 108.419 12.024C108.131 12.492 107.741 12.846 107.249 13.086C106.757 13.326 106.181 13.446 105.521 13.446ZM117.209 13.5C116.405 13.5 115.703 13.362 115.103 13.086C114.515 12.798 114.023 12.414 113.627 11.934C113.231 11.442 112.931 10.902 112.727 10.314C112.535 9.72603 112.439 9.13203 112.439 8.53203V8.28003C112.439 7.66803 112.535 7.07403 112.727 6.49803C112.931 5.91003 113.231 5.38203 113.627 4.91403C114.023 4.43403 114.515 4.05603 115.103 3.78003C115.703 3.49203 116.393 3.34803 117.173 3.34803C117.965 3.34803 118.667 3.49203 119.279 3.78003C119.903 4.06803 120.407 4.47603 120.791 5.00403C121.175 5.53203 121.403 6.15603 121.475 6.87603H120.179C120.071 6.21603 119.759 5.67003 119.243 5.23803C118.739 4.79403 118.049 4.57203 117.173 4.57203C116.417 4.57203 115.787 4.74603 115.283 5.09403C114.791 5.43003 114.419 5.89203 114.167 6.48003C113.915 7.05603 113.789 7.69803 113.789 8.40603C113.789 9.10203 113.915 9.75003 114.167 10.35C114.419 10.938 114.797 11.412 115.301 11.772C115.805 12.12 116.441 12.294 117.209 12.294C117.797 12.294 118.307 12.192 118.739 11.988C119.183 11.772 119.537 11.484 119.801 11.124C120.077 10.764 120.239 10.368 120.287 9.93603H121.583C121.535 10.656 121.307 11.286 120.899 11.826C120.503 12.354 119.987 12.768 119.351 13.068C118.715 13.356 118.001 13.5 117.209 13.5ZM130.538 13.194L126.704 8.73003H125.156L129.674 3.67203H131.114L127.064 8.19003L127.154 7.45203L132.122 13.194H130.538ZM124.058 13.194V0.0540304H125.408V13.194H124.058ZM134.045 9.55803V0.0540304H135.413V9.55803H134.045ZM133.901 13.194V11.412H135.575V13.194H133.901ZM144.55 8.38803V7.18203H147.61C148.318 7.18203 148.894 7.05003 149.338 6.78603C149.782 6.51003 150.112 6.15003 150.328 5.70603C150.544 5.25003 150.652 4.74603 150.652 4.19403C150.652 3.63003 150.544 3.12603 150.328 2.68203C150.112 2.22603 149.782 1.86603 149.338 1.60203C148.894 1.33803 148.318 1.20603 147.61 1.20603H144.55V3.00407e-05H147.376C148.432 3.00407e-05 149.302 0.17403 149.986 0.52203C150.682 0.87003 151.198 1.35003 151.534 1.96203C151.882 2.57403 152.056 3.27603 152.056 4.06803V4.32003C152.056 5.10003 151.882 5.80203 151.534 6.42603C151.198 7.03803 150.682 7.51803 149.986 7.86603C149.302 8.21403 148.432 8.38803 147.376 8.38803H144.55ZM143.542 13.194V3.00407e-05H144.91V13.194H143.542ZM154.664 13.194V0.0540304H156.014V13.194H154.664ZM153.278 1.15203V0.0540304H156.014V1.15203H153.278ZM163.491 13.5C162.675 13.5 161.967 13.362 161.367 13.086C160.767 12.798 160.275 12.42 159.891 11.952C159.507 11.472 159.219 10.938 159.027 10.35C158.847 9.76203 158.757 9.15603 158.757 8.53203V8.28003C158.757 7.66803 158.847 7.06803 159.027 6.48003C159.219 5.89203 159.507 5.36403 159.891 4.89603C160.275 4.42803 160.755 4.05603 161.331 3.78003C161.919 3.49203 162.603 3.34803 163.383 3.34803C164.379 3.34803 165.207 3.57003 165.867 4.01403C166.539 4.45803 167.043 5.02803 167.379 5.72403C167.715 6.40803 167.883 7.14603 167.883 7.93803V8.64003H159.369V7.59603H166.947L166.605 8.11803C166.605 7.41003 166.479 6.79203 166.227 6.26403C165.987 5.72403 165.627 5.30403 165.147 5.00403C164.679 4.69203 164.091 4.53603 163.383 4.53603C162.639 4.53603 162.021 4.71003 161.529 5.05803C161.037 5.40603 160.665 5.86803 160.413 6.44403C160.173 7.02003 160.053 7.67403 160.053 8.40603C160.053 9.12603 160.173 9.78603 160.413 10.386C160.665 10.974 161.043 11.442 161.547 11.79C162.063 12.138 162.711 12.312 163.491 12.312C164.319 12.312 164.991 12.126 165.507 11.754C166.023 11.37 166.341 10.92 166.461 10.404H167.721C167.601 11.04 167.349 11.592 166.965 12.06C166.581 12.516 166.095 12.87 165.507 13.122C164.919 13.374 164.247 13.5 163.491 13.5ZM176.278 13.194V10.332H176.062V6.94803C176.062 6.24003 175.876 5.70003 175.504 5.32803C175.132 4.94403 174.556 4.75203 173.776 4.75203C173.416 4.75203 173.05 4.75803 172.678 4.77003C172.318 4.78203 171.97 4.80003 171.634 4.82403C171.31 4.83603 171.022 4.85403 170.77 4.87803V3.69003C171.034 3.66603 171.304 3.64203 171.58 3.61803C171.856 3.59403 172.138 3.58203 172.426 3.58203C172.726 3.57003 173.014 3.56403 173.29 3.56403C174.262 3.56403 175.042 3.68403 175.63 3.92403C176.23 4.16403 176.668 4.54203 176.944 5.05803C177.22 5.56203 177.358 6.23403 177.358 7.07403V13.194H176.278ZM173.056 13.446C172.384 13.446 171.79 13.326 171.274 13.086C170.758 12.846 170.356 12.498 170.068 12.042C169.792 11.586 169.654 11.034 169.654 10.386C169.654 9.75003 169.798 9.21003 170.086 8.76603C170.386 8.32203 170.812 7.98603 171.364 7.75803C171.928 7.51803 172.606 7.39803 173.398 7.39803H176.188V8.42403H173.308C172.552 8.42403 171.97 8.61003 171.562 8.98203C171.166 9.34203 170.968 9.81603 170.968 10.404C170.968 11.004 171.178 11.484 171.598 11.844C172.018 12.192 172.588 12.366 173.308 12.366C173.752 12.366 174.178 12.288 174.586 12.132C174.994 11.964 175.336 11.688 175.612 11.304C175.888 10.908 176.038 10.368 176.062 9.68403L176.458 10.242C176.41 10.95 176.242 11.544 175.954 12.024C175.666 12.492 175.276 12.846 174.784 13.086C174.292 13.326 173.716 13.446 173.056 13.446ZM183.736 13.464C182.512 13.464 181.57 13.2 180.91 12.672C180.25 12.132 179.914 11.412 179.902 10.512H181.162C181.186 10.968 181.39 11.382 181.774 11.754C182.17 12.126 182.824 12.312 183.736 12.312C184.588 12.312 185.224 12.138 185.644 11.79C186.076 11.43 186.292 10.998 186.292 10.494C186.292 10.026 186.112 9.66603 185.752 9.41403C185.404 9.15003 184.894 8.98203 184.222 8.91003L183.142 8.80203C182.278 8.70603 181.576 8.44203 181.036 8.01003C180.508 7.56603 180.244 6.96003 180.244 6.19203C180.244 5.62803 180.388 5.13603 180.676 4.71603C180.964 4.29603 181.366 3.97203 181.882 3.74403C182.41 3.50403 183.028 3.38403 183.736 3.38403C184.756 3.38403 185.584 3.62403 186.22 4.10403C186.868 4.58403 187.198 5.26803 187.21 6.15603H185.95C185.938 5.70003 185.746 5.31603 185.374 5.00403C185.002 4.69203 184.456 4.53603 183.736 4.53603C182.992 4.53603 182.434 4.69803 182.062 5.02203C181.702 5.34603 181.522 5.74203 181.522 6.21003C181.522 6.60603 181.66 6.93603 181.936 7.20003C182.212 7.45203 182.644 7.60803 183.232 7.66803L184.312 7.77603C185.272 7.88403 186.052 8.16003 186.652 8.60403C187.264 9.04803 187.57 9.68403 187.57 10.512C187.57 11.076 187.408 11.586 187.084 12.042C186.772 12.486 186.328 12.834 185.752 13.086C185.176 13.338 184.504 13.464 183.736 13.464ZM194.235 13.5C193.419 13.5 192.711 13.362 192.111 13.086C191.511 12.798 191.019 12.42 190.635 11.952C190.251 11.472 189.963 10.938 189.771 10.35C189.591 9.76203 189.501 9.15603 189.501 8.53203V8.28003C189.501 7.66803 189.591 7.06803 189.771 6.48003C189.963 5.89203 190.251 5.36403 190.635 4.89603C191.019 4.42803 191.499 4.05603 192.075 3.78003C192.663 3.49203 193.347 3.34803 194.127 3.34803C195.123 3.34803 195.951 3.57003 196.611 4.01403C197.283 4.45803 197.787 5.02803 198.123 5.72403C198.459 6.40803 198.627 7.14603 198.627 7.93803V8.64003H190.113V7.59603H197.691L197.349 8.11803C197.349 7.41003 197.223 6.79203 196.971 6.26403C196.731 5.72403 196.371 5.30403 195.891 5.00403C195.423 4.69203 194.835 4.53603 194.127 4.53603C193.383 4.53603 192.765 4.71003 192.273 5.05803C191.781 5.40603 191.409 5.86803 191.157 6.44403C190.917 7.02003 190.797 7.67403 190.797 8.40603C190.797 9.12603 190.917 9.78603 191.157 10.386C191.409 10.974 191.787 11.442 192.291 11.79C192.807 12.138 193.455 12.312 194.235 12.312C195.063 12.312 195.735 12.126 196.251 11.754C196.767 11.37 197.085 10.92 197.205 10.404H198.465C198.345 11.04 198.093 11.592 197.709 12.06C197.325 12.516 196.839 12.87 196.251 13.122C195.663 13.374 194.991 13.5 194.235 13.5ZM209.405 13.5C208.589 13.5 207.881 13.362 207.281 13.086C206.681 12.798 206.189 12.42 205.805 11.952C205.421 11.472 205.133 10.938 204.941 10.35C204.761 9.76203 204.671 9.15603 204.671 8.53203V8.28003C204.671 7.66803 204.761 7.06803 204.941 6.48003C205.133 5.89203 205.421 5.36403 205.805 4.89603C206.189 4.42803 206.669 4.05603 207.245 3.78003C207.833 3.49203 208.517 3.34803 209.297 3.34803C210.293 3.34803 211.121 3.57003 211.781 4.01403C212.453 4.45803 212.957 5.02803 213.293 5.72403C213.629 6.40803 213.797 7.14603 213.797 7.93803V8.64003H205.283V7.59603H212.861L212.519 8.11803C212.519 7.41003 212.393 6.79203 212.141 6.26403C211.901 5.72403 211.541 5.30403 211.061 5.00403C210.593 4.69203 210.005 4.53603 209.297 4.53603C208.553 4.53603 207.935 4.71003 207.443 5.05803C206.951 5.40603 206.579 5.86803 206.327 6.44403C206.087 7.02003 205.967 7.67403 205.967 8.40603C205.967 9.12603 206.087 9.78603 206.327 10.386C206.579 10.974 206.957 11.442 207.461 11.79C207.977 12.138 208.625 12.312 209.405 12.312C210.233 12.312 210.905 12.126 211.421 11.754C211.937 11.37 212.255 10.92 212.375 10.404H213.635C213.515 11.04 213.263 11.592 212.879 12.06C212.495 12.516 212.009 12.87 211.421 13.122C210.833 13.374 210.161 13.5 209.405 13.5ZM216.396 13.194V3.67203H217.476V7.66803H217.26C217.26 6.78003 217.392 6.01803 217.656 5.38203C217.92 4.74603 218.316 4.25403 218.844 3.90603C219.372 3.55803 220.038 3.38403 220.842 3.38403H220.896C222.096 3.38403 222.99 3.76203 223.578 4.51803C224.166 5.26203 224.46 6.31203 224.46 7.66803V13.194H223.128V7.38003C223.128 6.55203 222.9 5.88603 222.444 5.38203C221.988 4.87803 221.352 4.62603 220.536 4.62603C219.696 4.62603 219.018 4.89003 218.502 5.41803C217.998 5.93403 217.746 6.61803 217.746 7.47003V13.194H216.396ZM231.278 13.302C230.618 13.302 230.048 13.206 229.568 13.014C229.088 12.822 228.716 12.498 228.452 12.042C228.188 11.574 228.056 10.95 228.056 10.17V0.66603H229.352V10.368C229.352 10.92 229.502 11.346 229.802 11.646C230.102 11.934 230.528 12.078 231.08 12.078H232.79V13.302H231.278ZM226.346 4.69803V3.67203H232.79V4.69803H226.346ZM239.288 13.5C238.472 13.5 237.764 13.362 237.164 13.086C236.564 12.798 236.072 12.42 235.688 11.952C235.304 11.472 235.016 10.938 234.824 10.35C234.644 9.76203 234.554 9.15603 234.554 8.53203V8.28003C234.554 7.66803 234.644 7.06803 234.824 6.48003C235.016 5.89203 235.304 5.36403 235.688 4.89603C236.072 4.42803 236.552 4.05603 237.128 3.78003C237.716 3.49203 238.4 3.34803 239.18 3.34803C240.176 3.34803 241.004 3.57003 241.664 4.01403C242.336 4.45803 242.84 5.02803 243.176 5.72403C243.512 6.40803 243.68 7.14603 243.68 7.93803V8.64003H235.166V7.59603H242.744L242.402 8.11803C242.402 7.41003 242.276 6.79203 242.024 6.26403C241.784 5.72403 241.424 5.30403 240.944 5.00403C240.476 4.69203 239.888 4.53603 239.18 4.53603C238.436 4.53603 237.818 4.71003 237.326 5.05803C236.834 5.40603 236.462 5.86803 236.21 6.44403C235.97 7.02003 235.85 7.67403 235.85 8.40603C235.85 9.12603 235.97 9.78603 236.21 10.386C236.462 10.974 236.84 11.442 237.344 11.79C237.86 12.138 238.508 12.312 239.288 12.312C240.116 12.312 240.788 12.126 241.304 11.754C241.82 11.37 242.138 10.92 242.258 10.404H243.518C243.398 11.04 243.146 11.592 242.762 12.06C242.378 12.516 241.892 12.87 241.304 13.122C240.716 13.374 240.044 13.5 239.288 13.5ZM246.279 13.194V3.67203H247.359V7.65003H247.251C247.251 6.25803 247.557 5.23203 248.169 4.57203C248.781 3.90003 249.741 3.56403 251.049 3.56403H251.355V4.78803H250.797C249.765 4.78803 248.979 5.05803 248.439 5.59803C247.899 6.12603 247.629 6.90603 247.629 7.93803V13.194H246.279ZM256.894 16.902V15.696H258.118C258.538 15.696 258.898 15.642 259.198 15.534C259.498 15.438 259.75 15.264 259.954 15.012C260.158 14.76 260.332 14.412 260.476 13.968L263.68 3.67203H264.994L261.646 14.346C261.454 14.958 261.19 15.45 260.854 15.822C260.518 16.206 260.116 16.482 259.648 16.65C259.18 16.818 258.646 16.902 258.046 16.902H256.894ZM259.99 12.96V11.826H261.7V12.96H259.99ZM259.828 12.96L256.372 3.67203H257.758L261.088 12.96H259.828ZM271.463 13.5C270.647 13.5 269.927 13.362 269.303 13.086C268.691 12.798 268.169 12.42 267.737 11.952C267.317 11.472 266.993 10.938 266.765 10.35C266.549 9.76203 266.441 9.16203 266.441 8.55003V8.29803C266.441 7.68603 266.555 7.08603 266.783 6.49803C267.011 5.89803 267.341 5.36403 267.773 4.89603C268.205 4.42803 268.727 4.05603 269.339 3.78003C269.963 3.49203 270.671 3.34803 271.463 3.34803C272.267 3.34803 272.975 3.49203 273.587 3.78003C274.211 4.05603 274.739 4.42803 275.171 4.89603C275.603 5.36403 275.927 5.89803 276.143 6.49803C276.371 7.08603 276.485 7.68603 276.485 8.29803V8.55003C276.485 9.16203 276.377 9.76203 276.161 10.35C275.945 10.938 275.621 11.472 275.189 11.952C274.769 12.42 274.247 12.798 273.623 13.086C272.999 13.362 272.279 13.5 271.463 13.5ZM271.463 12.294C272.255 12.294 272.921 12.12 273.461 11.772C274.013 11.412 274.433 10.944 274.721 10.368C275.009 9.78003 275.153 9.13203 275.153 8.42403C275.153 7.70403 275.003 7.05603 274.703 6.48003C274.415 5.89203 273.995 5.43003 273.443 5.09403C272.891 4.74603 272.231 4.57203 271.463 4.57203C270.707 4.57203 270.053 4.74603 269.501 5.09403C268.949 5.43003 268.523 5.89203 268.223 6.48003C267.935 7.05603 267.791 7.70403 267.791 8.42403C267.791 9.13203 267.935 9.78003 268.223 10.368C268.511 10.944 268.925 11.412 269.465 11.772C270.017 12.12 270.683 12.294 271.463 12.294ZM282.532 13.464C281.392 13.464 280.522 13.098 279.922 12.366C279.322 11.622 279.022 10.59 279.022 9.27003V3.65403H280.354V9.54003C280.354 10.368 280.57 11.028 281.002 11.52C281.446 12 282.058 12.24 282.838 12.24C283.654 12.24 284.302 11.982 284.782 11.466C285.274 10.95 285.52 10.26 285.52 9.39603V3.65403H286.87V13.194H285.79V9.21603H286.006C286.006 10.104 285.88 10.866 285.628 11.502C285.376 12.126 284.998 12.612 284.494 12.96C283.99 13.296 283.354 13.464 282.586 13.464H282.532ZM290.4 13.194V3.67203H291.48V7.65003H291.372C291.372 6.25803 291.678 5.23203 292.29 4.57203C292.902 3.90003 293.862 3.56403 295.17 3.56403H295.476V4.78803H294.918C293.886 4.78803 293.1 5.05803 292.56 5.59803C292.02 6.12603 291.75 6.90603 291.75 7.93803V13.194H290.4ZM5.05776 36.5C4.36176 36.5 3.72576 36.374 3.14976 36.122C2.58576 35.858 2.09376 35.498 1.67376 35.042C1.26576 34.574 0.947762 34.046 0.719762 33.458C0.503762 32.858 0.395762 32.222 0.395762 31.55V31.298C0.395762 30.65 0.503762 30.032 0.719762 29.444C0.935762 28.844 1.24176 28.316 1.63776 27.86C2.04576 27.392 2.53176 27.026 3.09576 26.762C3.67176 26.486 4.31376 26.348 5.02176 26.348C5.82576 26.348 6.53376 26.522 7.14576 26.87C7.75776 27.218 8.24976 27.722 8.62176 28.382C8.99376 29.03 9.19176 29.828 9.21576 30.776L8.62176 29.66V23.054H9.97176V36.194H8.89176V31.964H9.32376C9.29976 32.96 9.08976 33.8 8.69376 34.484C8.30976 35.156 7.79976 35.66 7.16376 35.996C6.53976 36.332 5.83776 36.5 5.05776 36.5ZM5.23776 35.312C5.88576 35.312 6.46776 35.168 6.98376 34.88C7.51176 34.592 7.92576 34.184 8.22576 33.656C8.52576 33.116 8.67576 32.498 8.67576 31.802V30.938C8.67576 30.266 8.52576 29.678 8.22576 29.174C7.92576 28.658 7.51176 28.256 6.98376 27.968C6.46776 27.68 5.87976 27.536 5.21976 27.536C4.51176 27.536 3.89376 27.71 3.36576 28.058C2.84976 28.394 2.44776 28.856 2.15976 29.444C1.88376 30.032 1.74576 30.692 1.74576 31.424C1.74576 32.18 1.88976 32.852 2.17776 33.44C2.46576 34.028 2.87376 34.49 3.40176 34.826C3.92976 35.15 4.54176 35.312 5.23776 35.312ZM17.4344 36.5C16.6184 36.5 15.9104 36.362 15.3104 36.086C14.7104 35.798 14.2184 35.42 13.8344 34.952C13.4504 34.472 13.1624 33.938 12.9704 33.35C12.7904 32.762 12.7004 32.156 12.7004 31.532V31.28C12.7004 30.668 12.7904 30.068 12.9704 29.48C13.1624 28.892 13.4504 28.364 13.8344 27.896C14.2184 27.428 14.6984 27.056 15.2744 26.78C15.8624 26.492 16.5464 26.348 17.3264 26.348C18.3224 26.348 19.1504 26.57 19.8104 27.014C20.4824 27.458 20.9864 28.028 21.3224 28.724C21.6584 29.408 21.8264 30.146 21.8264 30.938V31.64H13.3124V30.596H20.8905L20.5484 31.118C20.5484 30.41 20.4224 29.792 20.1704 29.264C19.9304 28.724 19.5704 28.304 19.0904 28.004C18.6224 27.692 18.0344 27.536 17.3264 27.536C16.5824 27.536 15.9644 27.71 15.4724 28.058C14.9804 28.406 14.6084 28.868 14.3564 29.444C14.1164 30.02 13.9964 30.674 13.9964 31.406C13.9964 32.126 14.1164 32.786 14.3564 33.386C14.6084 33.974 14.9864 34.442 15.4904 34.79C16.0064 35.138 16.6544 35.312 17.4344 35.312C18.2624 35.312 18.9344 35.126 19.4504 34.754C19.9664 34.37 20.2844 33.92 20.4044 33.404H21.6644C21.5444 34.04 21.2924 34.592 20.9084 35.06C20.5244 35.516 20.0384 35.87 19.4504 36.122C18.8624 36.374 18.1904 36.5 17.4344 36.5ZM27.8812 36.302C27.2212 36.302 26.6512 36.206 26.1712 36.014C25.6912 35.822 25.3192 35.498 25.0552 35.042C24.7912 34.574 24.6592 33.95 24.6592 33.17V23.666H25.9552V33.368C25.9552 33.92 26.1052 34.346 26.4052 34.646C26.7052 34.934 27.1312 35.078 27.6832 35.078H29.3932V36.302H27.8812ZM22.9492 27.698V26.672H29.3932V27.698H22.9492ZM37.7622 36.194V33.332H37.5462V29.948C37.5462 29.24 37.3602 28.7 36.9882 28.328C36.6162 27.944 36.0402 27.752 35.2602 27.752C34.9002 27.752 34.5342 27.758 34.1622 27.77C33.8022 27.782 33.4542 27.8 33.1182 27.824C32.7942 27.836 32.5062 27.854 32.2542 27.878V26.69C32.5182 26.666 32.7882 26.642 33.0642 26.618C33.3402 26.594 33.6222 26.582 33.9102 26.582C34.2102 26.57 34.4982 26.564 34.7742 26.564C35.7462 26.564 36.5262 26.684 37.1142 26.924C37.7142 27.164 38.1522 27.542 38.4282 28.058C38.7042 28.562 38.8422 29.234 38.8422 30.074V36.194H37.7622ZM34.5402 36.446C33.8682 36.446 33.2742 36.326 32.7582 36.086C32.2422 35.846 31.8402 35.498 31.5522 35.042C31.2762 34.586 31.1382 34.034 31.1382 33.386C31.1382 32.75 31.2822 32.21 31.5702 31.766C31.8702 31.322 32.2962 30.986 32.8482 30.758C33.4122 30.518 34.0902 30.398 34.8822 30.398H37.6722V31.424H34.7922C34.0362 31.424 33.4542 31.61 33.0462 31.982C32.6502 32.342 32.4522 32.816 32.4522 33.404C32.4522 34.004 32.6622 34.484 33.0822 34.844C33.5022 35.192 34.0722 35.366 34.7922 35.366C35.2362 35.366 35.6622 35.288 36.0702 35.132C36.4782 34.964 36.8202 34.688 37.0962 34.304C37.3722 33.908 37.5222 33.368 37.5462 32.684L37.9422 33.242C37.8942 33.95 37.7262 34.544 37.4382 35.024C37.1502 35.492 36.7602 35.846 36.2682 36.086C35.7762 36.326 35.2002 36.446 34.5402 36.446ZM42.7183 36.194V26.672H44.0503V36.194H42.7183ZM41.1883 27.752V26.672H44.0503V27.752H41.1883ZM43.0063 24.908C42.6823 24.908 42.4363 24.824 42.2683 24.656C42.1123 24.476 42.0343 24.254 42.0343 23.99C42.0343 23.726 42.1123 23.51 42.2683 23.342C42.4363 23.162 42.6823 23.072 43.0063 23.072C43.3303 23.072 43.5703 23.162 43.7263 23.342C43.8823 23.51 43.9603 23.726 43.9603 23.99C43.9603 24.254 43.8823 24.476 43.7263 24.656C43.5703 24.824 43.3303 24.908 43.0063 24.908ZM47.6832 36.194V23.054H49.0332V36.194H47.6832ZM46.2972 24.152V23.054H49.0332V24.152H46.2972ZM55.5386 36.464C54.3146 36.464 53.3726 36.2 52.7126 35.672C52.0526 35.132 51.7166 34.412 51.7046 33.512H52.9646C52.9886 33.968 53.1926 34.382 53.5766 34.754C53.9726 35.126 54.6266 35.312 55.5386 35.312C56.3906 35.312 57.0266 35.138 57.4466 34.79C57.8786 34.43 58.0946 33.998 58.0946 33.494C58.0946 33.026 57.9146 32.666 57.5546 32.414C57.2066 32.15 56.6966 31.982 56.0246 31.91L54.9446 31.802C54.0806 31.706 53.3786 31.442 52.8386 31.01C52.3106 30.566 52.0466 29.96 52.0466 29.192C52.0466 28.628 52.1906 28.136 52.4786 27.716C52.7666 27.296 53.1686 26.972 53.6846 26.744C54.2126 26.504 54.8306 26.384 55.5386 26.384C56.5586 26.384 57.3866 26.624 58.0226 27.104C58.6706 27.584 59.0006 28.268 59.0126 29.156H57.7526C57.7406 28.7 57.5486 28.316 57.1766 28.004C56.8046 27.692 56.2586 27.536 55.5386 27.536C54.7946 27.536 54.2366 27.698 53.8646 28.022C53.5046 28.346 53.3246 28.742 53.3246 29.21C53.3246 29.606 53.4626 29.936 53.7386 30.2C54.0146 30.452 54.4466 30.608 55.0346 30.668L56.1146 30.776C57.0746 30.884 57.8546 31.16 58.4546 31.604C59.0666 32.048 59.3726 32.684 59.3726 33.512C59.3726 34.076 59.2106 34.586 58.8866 35.042C58.5746 35.486 58.1306 35.834 57.5546 36.086C56.9786 36.338 56.3066 36.464 55.5386 36.464ZM61.6142 36.194V34.412H63.3062V36.194H61.6142Z" fill="white" fill-opacity="0.71"/>
</svg>
