<svg width="221" height="21" viewBox="0 0 221 21" fill="none" xmlns="http://www.w3.org/2000/svg">
<path d="M5.04011 20.44L0.000109419 1.90735e-06H4.73211L8.68011 17.36L7.70011 16.716H10.2481L9.15611 17.36L12.2081 0.756002H16.0161L12.0121 20.44H5.04011ZM17.2201 20.44L12.9081 0.756002H16.9121L20.4401 17.36L19.3761 16.716H21.8121L20.8881 17.36L24.3321 1.90735e-06H28.8121L24.3321 20.44H17.2201ZM37.7693 20.972C36.4626 20.972 35.3053 20.748 34.2973 20.3C33.3079 19.852 32.4773 19.2547 31.8053 18.508C31.1519 17.7427 30.6479 16.8933 30.2933 15.96C29.9573 15.008 29.7893 14.0373 29.7893 13.048V12.488C29.7893 11.4613 29.9573 10.4813 30.2933 9.548C30.6479 8.596 31.1519 7.74667 31.8053 7C32.4586 6.25333 33.2706 5.66533 34.2413 5.236C35.2306 4.788 36.3506 4.564 37.6013 4.564C39.2439 4.564 40.6253 4.93734 41.7453 5.684C42.8839 6.412 43.7519 7.37333 44.3493 8.568C44.9466 9.744 45.2453 11.032 45.2453 12.432V13.944H31.6653V11.396H42.5293L41.0733 12.572C41.0733 11.6573 40.9426 10.8733 40.6813 10.22C40.4199 9.56667 40.0279 9.072 39.5053 8.736C39.0013 8.38134 38.3666 8.204 37.6013 8.204C36.8173 8.204 36.1546 8.38134 35.6133 8.736C35.0719 9.09067 34.6613 9.61334 34.3813 10.304C34.1013 10.976 33.9613 11.8067 33.9613 12.796C33.9613 13.7107 34.0919 14.5133 34.3533 15.204C34.6146 15.876 35.0253 16.3987 35.5853 16.772C36.1453 17.1453 36.8733 17.332 37.7693 17.332C38.5906 17.332 39.2626 17.1733 39.7853 16.856C40.3079 16.5387 40.6626 16.1467 40.8493 15.68H44.9653C44.7413 16.7067 44.3026 17.6213 43.6493 18.424C42.9959 19.2267 42.1746 19.852 41.1853 20.3C40.1959 20.748 39.0573 20.972 37.7693 20.972ZM48.4099 20.44V1.90735e-06H52.9179V20.44H48.4099ZM46.5899 3.304V1.90735e-06H52.9179V3.304H46.5899ZM63.934 20.972C62.6086 20.972 61.4513 20.7573 60.462 20.328C59.4913 19.88 58.6793 19.2827 58.026 18.536C57.3726 17.7893 56.8873 16.9493 56.57 16.016C56.2526 15.064 56.094 14.084 56.094 13.076V12.544C56.094 11.4987 56.262 10.5 56.598 9.548C56.934 8.57734 57.4286 7.71867 58.082 6.972C58.7353 6.22533 59.5473 5.63733 60.518 5.208C61.5073 4.77867 62.6366 4.564 63.906 4.564C65.2873 4.564 66.51 4.83467 67.574 5.376C68.638 5.89867 69.4873 6.636 70.122 7.588C70.7566 8.54 71.1113 9.632 71.186 10.864H66.79C66.7153 10.1733 66.4353 9.59467 65.95 9.128C65.4833 8.64267 64.802 8.4 63.906 8.4C63.1593 8.4 62.534 8.58667 62.03 8.96C61.5446 9.33334 61.1806 9.84667 60.938 10.5C60.6953 11.1533 60.574 11.928 60.574 12.824C60.574 13.6453 60.686 14.392 60.91 15.064C61.134 15.7173 61.4886 16.2307 61.974 16.604C62.478 16.9587 63.1313 17.136 63.934 17.136C64.5313 17.136 65.0353 17.0333 65.446 16.828C65.8753 16.604 66.2113 16.3053 66.454 15.932C66.7153 15.54 66.874 15.092 66.93 14.588H71.298C71.242 15.8573 70.8873 16.9773 70.234 17.948C69.5806 18.9 68.7126 19.6467 67.63 20.188C66.5473 20.7107 65.3153 20.972 63.934 20.972ZM81.6391 20.972C80.2951 20.972 79.1005 20.7667 78.0551 20.356C77.0098 19.9267 76.1231 19.348 75.3951 18.62C74.6858 17.892 74.1445 17.0613 73.7711 16.128C73.3978 15.176 73.2111 14.1773 73.2111 13.132V12.488C73.2111 11.424 73.3978 10.416 73.7711 9.464C74.1631 8.49333 74.7231 7.644 75.4511 6.916C76.1978 6.188 77.0938 5.61867 78.1391 5.208C79.1845 4.77867 80.3511 4.564 81.6391 4.564C82.9645 4.564 84.1405 4.77867 85.1671 5.208C86.2125 5.61867 87.0991 6.188 87.8271 6.916C88.5551 7.644 89.1151 8.49333 89.5071 9.464C89.8991 10.416 90.0951 11.424 90.0951 12.488V13.132C90.0951 14.1773 89.9085 15.176 89.5351 16.128C89.1618 17.0613 88.6111 17.892 87.8831 18.62C87.1738 19.348 86.2965 19.9267 85.2511 20.356C84.2058 20.7667 83.0018 20.972 81.6391 20.972ZM81.6391 17.192C82.5165 17.192 83.2445 17.0053 83.8231 16.632C84.4018 16.2587 84.8405 15.736 85.1391 15.064C85.4565 14.392 85.6151 13.6453 85.6151 12.824C85.6151 11.9467 85.4565 11.1813 85.1391 10.528C84.8218 9.856 84.3645 9.324 83.7671 8.932C83.1885 8.54 82.4791 8.344 81.6391 8.344C80.8178 8.344 80.1085 8.54 79.5111 8.932C78.9138 9.324 78.4565 9.856 78.1391 10.528C77.8405 11.1813 77.6911 11.9467 77.6911 12.824C77.6911 13.6453 77.8405 14.392 78.1391 15.064C78.4378 15.736 78.8858 16.2587 79.4831 16.632C80.0805 17.0053 80.7991 17.192 81.6391 17.192ZM93.2217 20.44V5.096H96.7777V11.704H96.5257C96.5257 10.136 96.7217 8.82934 97.1137 7.784C97.5057 6.73867 98.0937 5.95467 98.8777 5.432C99.6617 4.89067 100.623 4.62 101.762 4.62H101.958C103.115 4.62 104.076 4.89067 104.842 5.432C105.626 5.95467 106.214 6.73867 106.606 7.784C107.016 8.82934 107.222 10.136 107.222 11.704H106.13C106.13 10.136 106.326 8.82934 106.718 7.784C107.128 6.73867 107.726 5.95467 108.51 5.432C109.294 4.89067 110.255 4.62 111.394 4.62H111.59C112.747 4.62 113.718 4.89067 114.502 5.432C115.304 5.95467 115.911 6.73867 116.322 7.784C116.732 8.82934 116.938 10.136 116.938 11.704V20.44H112.458V11.452C112.458 10.612 112.234 9.93067 111.786 9.408C111.356 8.88534 110.74 8.624 109.938 8.624C109.135 8.624 108.5 8.89467 108.034 9.436C107.567 9.95867 107.334 10.6587 107.334 11.536V20.44H102.826V11.452C102.826 10.612 102.602 9.93067 102.154 9.408C101.724 8.88534 101.118 8.624 100.334 8.624C99.5124 8.624 98.8684 8.89467 98.4017 9.436C97.9351 9.95867 97.7017 10.6587 97.7017 11.536V20.44H93.2217ZM127.785 20.972C126.478 20.972 125.321 20.748 124.313 20.3C123.324 19.852 122.493 19.2547 121.821 18.508C121.168 17.7427 120.664 16.8933 120.309 15.96C119.973 15.008 119.805 14.0373 119.805 13.048V12.488C119.805 11.4613 119.973 10.4813 120.309 9.548C120.664 8.596 121.168 7.74667 121.821 7C122.474 6.25333 123.286 5.66533 124.257 5.236C125.246 4.788 126.366 4.564 127.617 4.564C129.26 4.564 130.641 4.93734 131.761 5.684C132.9 6.412 133.768 7.37333 134.365 8.568C134.962 9.744 135.261 11.032 135.261 12.432V13.944H121.681V11.396H132.545L131.089 12.572C131.089 11.6573 130.958 10.8733 130.697 10.22C130.436 9.56667 130.044 9.072 129.521 8.736C129.017 8.38134 128.382 8.204 127.617 8.204C126.833 8.204 126.17 8.38134 125.629 8.736C125.088 9.09067 124.677 9.61334 124.397 10.304C124.117 10.976 123.977 11.8067 123.977 12.796C123.977 13.7107 124.108 14.5133 124.369 15.204C124.63 15.876 125.041 16.3987 125.601 16.772C126.161 17.1453 126.889 17.332 127.785 17.332C128.606 17.332 129.278 17.1733 129.801 16.856C130.324 16.5387 130.678 16.1467 130.865 15.68H134.981C134.757 16.7067 134.318 17.6213 133.665 18.424C133.012 19.2267 132.19 19.852 131.201 20.3C130.212 20.748 129.073 20.972 127.785 20.972ZM153.544 20.944C152.294 20.944 151.192 20.6827 150.24 20.16C149.288 19.6187 148.542 18.844 148 17.836C147.459 16.828 147.17 15.596 147.132 14.14H147.664V20.44H144.108V1.90735e-06H148.588V10.388L147.524 11.732C147.58 10.1827 147.87 8.88534 148.392 7.84C148.934 6.776 149.671 5.98267 150.604 5.46C151.538 4.91867 152.602 4.648 153.796 4.648C154.842 4.648 155.784 4.844 156.624 5.236C157.483 5.60934 158.211 6.15067 158.808 6.86C159.406 7.55067 159.863 8.372 160.18 9.324C160.516 10.276 160.684 11.312 160.684 12.432V13.048C160.684 14.168 160.516 15.204 160.18 16.156C159.863 17.108 159.387 17.948 158.752 18.676C158.136 19.3853 157.39 19.9453 156.512 20.356C155.635 20.748 154.646 20.944 153.544 20.944ZM152.368 17.192C153.134 17.192 153.796 17.0053 154.356 16.632C154.935 16.2587 155.383 15.736 155.7 15.064C156.018 14.3733 156.176 13.5987 156.176 12.74C156.176 11.8627 156.018 11.0973 155.7 10.444C155.383 9.79067 154.935 9.28667 154.356 8.932C153.796 8.55867 153.134 8.372 152.368 8.372C151.696 8.372 151.062 8.53067 150.464 8.848C149.867 9.16534 149.382 9.62267 149.008 10.22C148.654 10.7987 148.476 11.508 148.476 12.348V13.384C148.476 14.1867 148.663 14.8773 149.036 15.456C149.428 16.016 149.923 16.4453 150.52 16.744C151.118 17.0427 151.734 17.192 152.368 17.192ZM173.064 20.44V15.904H172.308V10.976C172.308 10.192 172.121 9.604 171.748 9.212C171.375 8.82 170.777 8.624 169.956 8.624C169.545 8.624 169.004 8.63334 168.332 8.652C167.66 8.67067 166.969 8.69867 166.26 8.736C165.551 8.77334 164.907 8.81067 164.328 8.848V5.068C164.757 5.03067 165.261 4.99334 165.84 4.956C166.419 4.91867 167.016 4.89067 167.632 4.872C168.248 4.85333 168.827 4.844 169.368 4.844C170.936 4.844 172.252 5.068 173.316 5.516C174.399 5.964 175.22 6.64534 175.78 7.56C176.34 8.456 176.62 9.61333 176.62 11.032V20.44H173.064ZM168.164 20.832C167.063 20.832 166.092 20.636 165.252 20.244C164.431 19.852 163.787 19.292 163.32 18.564C162.853 17.8173 162.62 16.9307 162.62 15.904C162.62 14.784 162.909 13.8693 163.488 13.16C164.067 12.432 164.879 11.9 165.924 11.564C166.969 11.2093 168.173 11.032 169.536 11.032H172.812V13.524H169.508C168.724 13.524 168.117 13.72 167.688 14.112C167.277 14.4853 167.072 14.9987 167.072 15.652C167.072 16.268 167.277 16.772 167.688 17.164C168.117 17.5373 168.724 17.724 169.508 17.724C170.012 17.724 170.46 17.64 170.852 17.472C171.263 17.2853 171.599 16.9773 171.86 16.548C172.121 16.1187 172.271 15.5213 172.308 14.756L173.372 15.876C173.279 16.94 173.017 17.836 172.588 18.564C172.177 19.292 171.599 19.852 170.852 20.244C170.124 20.636 169.228 20.832 168.164 20.832ZM187.309 20.972C185.984 20.972 184.826 20.7573 183.837 20.328C182.866 19.88 182.054 19.2827 181.401 18.536C180.748 17.7893 180.262 16.9493 179.945 16.016C179.628 15.064 179.469 14.084 179.469 13.076V12.544C179.469 11.4987 179.637 10.5 179.973 9.548C180.309 8.57734 180.804 7.71867 181.457 6.972C182.11 6.22533 182.922 5.63733 183.893 5.208C184.882 4.77867 186.012 4.564 187.281 4.564C188.662 4.564 189.885 4.83467 190.949 5.376C192.013 5.89867 192.862 6.636 193.497 7.588C194.132 8.54 194.486 9.632 194.561 10.864H190.165C190.09 10.1733 189.81 9.59467 189.325 9.128C188.858 8.64267 188.177 8.4 187.281 8.4C186.534 8.4 185.909 8.58667 185.405 8.96C184.92 9.33334 184.556 9.84667 184.313 10.5C184.07 11.1533 183.949 11.928 183.949 12.824C183.949 13.6453 184.061 14.392 184.285 15.064C184.509 15.7173 184.864 16.2307 185.349 16.604C185.853 16.9587 186.506 17.136 187.309 17.136C187.906 17.136 188.41 17.0333 188.821 16.828C189.25 16.604 189.586 16.3053 189.829 15.932C190.09 15.54 190.249 15.092 190.305 14.588H194.673C194.617 15.8573 194.262 16.9773 193.609 17.948C192.956 18.9 192.088 19.6467 191.005 20.188C189.922 20.7107 188.69 20.972 187.309 20.972ZM208.346 20.44L203.502 13.272H201.346L207.59 5.096H212.294L206.414 12.712L206.47 10.528L213.386 20.44H208.346ZM197.538 20.44V1.90735e-06H202.018V20.44H197.538ZM215.533 13.524V1.90735e-06H220.125V13.524H215.533ZM215.197 20.44V15.932H220.461V20.44H215.197Z" fill="white"/>
</svg>
